<svg width="700" height="167" viewBox="0 0 700 167" fill="none" xmlns="http://www.w3.org/2000/svg">
<rect width="700" height="167" fill="white"/>
<path d="M12.8438 51.8281C12.8438 51.444 12.9609 51.1152 13.1953 50.8418C13.4297 50.5684 13.7845 50.4316 14.2598 50.4316C14.7285 50.4316 15.0833 50.5684 15.3242 50.8418C15.5716 51.1087 15.6953 51.4375 15.6953 51.8281C15.6953 52.2122 15.5716 52.5345 15.3242 52.7949C15.0768 53.0553 14.722 53.1855 14.2598 53.1855C13.791 53.1855 13.4362 53.0553 13.1953 52.7949C12.9609 52.528 12.8438 52.2057 12.8438 51.8281ZM25.9883 39.875V42.4336H30.0117V43.8301H25.9883V49.5723C25.9883 49.9824 26.0404 50.321 26.1445 50.5879C26.2487 50.8548 26.3919 51.0664 26.5742 51.2227C26.7565 51.3854 26.9648 51.4993 27.1992 51.5645C27.4401 51.6296 27.694 51.6621 27.9609 51.6621C28.1562 51.6621 28.3581 51.6523 28.5664 51.6328C28.7747 51.6068 28.9798 51.5775 29.1816 51.5449C29.377 51.5124 29.5592 51.4798 29.7285 51.4473C29.9043 51.4082 30.0475 51.3757 30.1582 51.3496L30.4121 52.6289C30.2624 52.7201 30.0801 52.8014 29.8652 52.873C29.6504 52.9382 29.416 52.9935 29.1621 53.0391C28.9082 53.0911 28.638 53.1302 28.3516 53.1562C28.0716 53.1823 27.7917 53.1953 27.5117 53.1953C27.043 53.1953 26.6035 53.1302 26.1934 53C25.7897 52.8633 25.4382 52.6484 25.1387 52.3555C24.8392 52.069 24.6016 51.6979 24.4258 51.2422C24.2565 50.7799 24.1719 50.2233 24.1719 49.5723V43.8301H21.3984V42.4336H24.1719V39.875H25.9883ZM34.0059 42.4336H39.4062V51.4375H42.8535V53H34.0059V51.4375H37.5996V44.0059H34.0059V42.4336ZM37.3652 39.6602C37.3652 39.5039 37.388 39.3574 37.4336 39.2207C37.4857 39.084 37.5638 38.9668 37.668 38.8691C37.7526 38.7845 37.86 38.7194 37.9902 38.6738C38.127 38.6217 38.2799 38.5957 38.4492 38.5957C38.6185 38.5957 38.7682 38.6217 38.8984 38.6738C39.0286 38.7194 39.1361 38.7845 39.2207 38.8691C39.3249 38.9603 39.403 39.0742 39.4551 39.2109C39.5072 39.3477 39.5332 39.4974 39.5332 39.6602C39.5332 39.9531 39.4421 40.1973 39.2598 40.3926C39.0775 40.5879 38.8073 40.6855 38.4492 40.6855C38.0846 40.6855 37.8112 40.5879 37.6289 40.3926C37.4531 40.1973 37.3652 39.9531 37.3652 39.6602ZM50.0117 39.875V42.4336H54.0352V43.8301H50.0117V49.5723C50.0117 49.9824 50.0638 50.321 50.168 50.5879C50.2721 50.8548 50.4154 51.0664 50.5977 51.2227C50.7799 51.3854 50.9883 51.4993 51.2227 51.5645C51.4635 51.6296 51.7174 51.6621 51.9844 51.6621C52.1797 51.6621 52.3815 51.6523 52.5898 51.6328C52.7982 51.6068 53.0033 51.5775 53.2051 51.5449C53.4004 51.5124 53.5827 51.4798 53.752 51.4473C53.9277 51.4082 54.071 51.3757 54.1816 51.3496L54.4355 52.6289C54.2858 52.7201 54.1035 52.8014 53.8887 52.873C53.6738 52.9382 53.4395 52.9935 53.1855 53.0391C52.9316 53.0911 52.6615 53.1302 52.375 53.1562C52.0951 53.1823 51.8151 53.1953 51.5352 53.1953C51.0664 53.1953 50.627 53.1302 50.2168 53C49.8132 52.8633 49.4616 52.6484 49.1621 52.3555C48.8626 52.069 48.625 51.6979 48.4492 51.2422C48.2799 50.7799 48.1953 50.2233 48.1953 49.5723V43.8301H45.4219V42.4336H48.1953V39.875H50.0117ZM64.6699 42.2383C65.002 42.2383 65.347 42.2611 65.7051 42.3066C66.0697 42.3522 66.3431 42.4141 66.5254 42.4922L66.2812 44.2598C65.9297 44.1816 65.5944 44.1263 65.2754 44.0938C64.9629 44.0547 64.6341 44.0352 64.2891 44.0352C63.8464 44.0352 63.446 44.0905 63.0879 44.2012C62.7298 44.3053 62.4173 44.4616 62.1504 44.6699C61.9095 44.8522 61.6979 45.0768 61.5156 45.3438C61.3398 45.6042 61.1934 45.8971 61.0762 46.2227V53H59.2598V42.4336H60.9785L61.0566 43.8496L61.0664 44.1133C61.4961 43.5339 62.0104 43.0781 62.6094 42.7461C63.2148 42.4076 63.9017 42.2383 64.6699 42.2383ZM74.4258 53.1953C73.6836 53.1953 73 53.0684 72.375 52.8145C71.7565 52.5605 71.2259 52.2057 70.7832 51.75C70.3405 51.2943 69.9954 50.7539 69.748 50.1289C69.5007 49.5039 69.377 48.8236 69.377 48.0879V47.6777C69.377 46.8249 69.5137 46.0632 69.7871 45.3926C70.0605 44.7155 70.4251 44.1426 70.8809 43.6738C71.3301 43.2116 71.8411 42.8568 72.4141 42.6094C72.9935 42.362 73.5859 42.2383 74.1914 42.2383C74.9531 42.2383 75.6172 42.3717 76.1836 42.6387C76.7565 42.8991 77.2318 43.2604 77.6094 43.7227C77.987 44.1914 78.2669 44.7415 78.4492 45.373C78.638 46.0046 78.7324 46.6882 78.7324 47.4238V48.2344H71.1836V48.3027C71.2292 48.8171 71.3301 49.2695 71.4863 49.6602C71.6491 50.0508 71.8704 50.3958 72.1504 50.6953C72.4368 51.0143 72.7819 51.265 73.1855 51.4473C73.5892 51.6296 74.0352 51.7207 74.5234 51.7207C75.168 51.7207 75.7409 51.5905 76.2422 51.3301C76.7435 51.0697 77.1602 50.7246 77.4922 50.2949L78.5957 51.1543C78.2441 51.6882 77.7168 52.1634 77.0137 52.5801C76.3171 52.9902 75.4544 53.1953 74.4258 53.1953ZM74.1914 43.7227C73.8268 43.7227 73.4818 43.791 73.1562 43.9277C72.8307 44.0579 72.5378 44.25 72.2773 44.5039C72.0169 44.7643 71.7956 45.0833 71.6133 45.4609C71.4375 45.832 71.3138 46.2617 71.2422 46.75H76.9258V46.6621C76.9258 46.3366 76.8639 45.9883 76.7402 45.6172C76.6165 45.2396 76.444 44.9141 76.2227 44.6406C76.0013 44.3672 75.7214 44.1458 75.3828 43.9766C75.0508 43.8073 74.6536 43.7227 74.1914 43.7227ZM89.6699 47.5215H82.1992V46.0371H89.6699V47.5215ZM95.002 42.4336H100.334V53.0684C100.334 53.7454 100.24 54.3444 100.051 54.8652C99.8685 55.3861 99.6016 55.8223 99.25 56.1738C98.8919 56.5319 98.4557 56.8021 97.9414 56.9844C97.4336 57.1732 96.8542 57.2676 96.2031 57.2676C96.0013 57.2676 95.806 57.2643 95.6172 57.2578C95.4284 57.2513 95.2428 57.2415 95.0605 57.2285C94.9108 57.2155 94.7611 57.196 94.6113 57.1699C94.4616 57.1504 94.3053 57.1276 94.1426 57.1016L94.2695 55.6172C94.3802 55.6367 94.5202 55.653 94.6895 55.666C94.8587 55.6855 95.0312 55.6986 95.207 55.7051C95.3763 55.7181 95.5391 55.7246 95.6953 55.7246C95.8581 55.7311 95.985 55.7344 96.0762 55.7344C96.4147 55.7344 96.7337 55.6888 97.0332 55.5977C97.3327 55.513 97.5931 55.3665 97.8145 55.1582C98.0358 54.9499 98.2083 54.6732 98.332 54.3281C98.4622 53.9896 98.5273 53.5697 98.5273 53.0684V44.0059H95.002V42.4336ZM98.2734 39.6504C98.2734 39.3574 98.3613 39.11 98.5371 38.9082C98.7129 38.6999 98.9831 38.5957 99.3477 38.5957C99.7122 38.5957 99.9857 38.6999 100.168 38.9082C100.35 39.11 100.441 39.3574 100.441 39.6504C100.441 39.9434 100.35 40.1908 100.168 40.3926C99.9857 40.5879 99.7122 40.6855 99.3477 40.6855C98.9831 40.6855 98.7129 40.5879 98.5371 40.3926C98.3613 40.1908 98.2734 39.9434 98.2734 39.6504ZM112.736 53C112.665 52.8633 112.606 52.694 112.561 52.4922C112.521 52.2839 112.492 52.069 112.473 51.8477C112.29 52.0299 112.085 52.2025 111.857 52.3652C111.636 52.528 111.392 52.6712 111.125 52.7949C110.852 52.9186 110.562 53.0163 110.256 53.0879C109.95 53.1595 109.624 53.1953 109.279 53.1953C108.719 53.1953 108.212 53.1139 107.756 52.9512C107.307 52.7884 106.926 52.5671 106.613 52.2871C106.294 52.0137 106.047 51.6882 105.871 51.3105C105.702 50.9264 105.617 50.513 105.617 50.0703C105.617 49.4909 105.731 48.9831 105.959 48.5469C106.193 48.1107 106.522 47.7461 106.945 47.4531C107.368 47.1667 107.876 46.9518 108.469 46.8086C109.068 46.6654 109.735 46.5938 110.471 46.5938H112.443V45.7637C112.443 45.4447 112.385 45.1582 112.268 44.9043C112.15 44.6504 111.984 44.4323 111.77 44.25C111.555 44.0742 111.291 43.9375 110.979 43.8398C110.673 43.7422 110.327 43.6934 109.943 43.6934C109.585 43.6934 109.263 43.7389 108.977 43.8301C108.697 43.9212 108.459 44.0417 108.264 44.1914C108.068 44.3411 107.915 44.5202 107.805 44.7285C107.701 44.9303 107.648 45.1419 107.648 45.3633H105.832C105.839 44.9792 105.936 44.6016 106.125 44.2305C106.32 43.8594 106.6 43.5241 106.965 43.2246C107.323 42.9316 107.759 42.694 108.273 42.5117C108.794 42.3294 109.383 42.2383 110.041 42.2383C110.64 42.2383 111.197 42.3132 111.711 42.4629C112.225 42.6061 112.671 42.8242 113.049 43.1172C113.42 43.4167 113.713 43.7878 113.928 44.2305C114.143 44.6732 114.25 45.1908 114.25 45.7832V50.6953C114.25 51.0469 114.283 51.4212 114.348 51.8184C114.413 52.209 114.504 52.5508 114.621 52.8438V53H112.736ZM109.543 51.623C109.895 51.623 110.223 51.5775 110.529 51.4863C110.835 51.3952 111.115 51.2747 111.369 51.125C111.617 50.9753 111.831 50.806 112.014 50.6172C112.196 50.4219 112.339 50.2201 112.443 50.0117V47.873H110.764C110.139 47.873 109.592 47.9284 109.123 48.0391C108.661 48.1432 108.293 48.306 108.02 48.5273C107.824 48.6836 107.674 48.8691 107.57 49.084C107.473 49.2988 107.424 49.543 107.424 49.8164C107.424 50.0768 107.466 50.3177 107.551 50.5391C107.642 50.7604 107.775 50.9492 107.951 51.1055C108.127 51.2682 108.348 51.3952 108.615 51.4863C108.882 51.5775 109.191 51.623 109.543 51.623ZM124.768 53L124.66 51.5449C124.309 52.0658 123.869 52.4727 123.342 52.7656C122.814 53.0521 122.206 53.1953 121.516 53.1953C120.962 53.1953 120.461 53.1107 120.012 52.9414C119.562 52.7656 119.178 52.4954 118.859 52.1309C118.54 51.7663 118.293 51.304 118.117 50.7441C117.948 50.1777 117.863 49.5007 117.863 48.7129V42.4336H119.67V48.7324C119.67 49.3053 119.715 49.7806 119.807 50.1582C119.898 50.5358 120.035 50.8353 120.217 51.0566C120.399 51.2845 120.62 51.444 120.881 51.5352C121.148 51.6263 121.454 51.6719 121.799 51.6719C122.202 51.6719 122.564 51.6263 122.883 51.5352C123.202 51.4375 123.479 51.304 123.713 51.1348C123.908 50.998 124.077 50.8353 124.221 50.6465C124.37 50.4512 124.494 50.2396 124.592 50.0117V42.4336H126.408V53H124.768ZM129.816 53V42.4336H131.438L131.564 43.9961C131.721 43.7747 131.89 43.5729 132.072 43.3906C132.261 43.2018 132.46 43.0391 132.668 42.9023C132.98 42.694 133.319 42.5345 133.684 42.4238C134.055 42.3066 134.445 42.2448 134.855 42.2383C135.409 42.2383 135.91 42.3164 136.359 42.4727C136.815 42.6289 137.202 42.873 137.521 43.2051C137.84 43.5371 138.085 43.9603 138.254 44.4746C138.43 44.9824 138.518 45.5879 138.518 46.291V53H136.711V46.3301C136.711 45.8613 136.659 45.4642 136.555 45.1387C136.451 44.8132 136.298 44.5495 136.096 44.3477C135.887 44.1458 135.633 43.9993 135.334 43.9082C135.041 43.8171 134.702 43.7715 134.318 43.7715C133.986 43.7715 133.677 43.8203 133.391 43.918C133.104 44.0091 132.84 44.1361 132.6 44.2988C132.404 44.4421 132.222 44.6081 132.053 44.7969C131.89 44.9857 131.747 45.194 131.623 45.4219V53H129.816ZM146.496 53.1953C145.754 53.1953 145.07 53.0684 144.445 52.8145C143.827 52.5605 143.296 52.2057 142.854 51.75C142.411 51.2943 142.066 50.7539 141.818 50.1289C141.571 49.5039 141.447 48.8236 141.447 48.0879V47.6777C141.447 46.8249 141.584 46.0632 141.857 45.3926C142.131 44.7155 142.495 44.1426 142.951 43.6738C143.4 43.2116 143.911 42.8568 144.484 42.6094C145.064 42.362 145.656 42.2383 146.262 42.2383C147.023 42.2383 147.688 42.3717 148.254 42.6387C148.827 42.8991 149.302 43.2604 149.68 43.7227C150.057 44.1914 150.337 44.7415 150.52 45.373C150.708 46.0046 150.803 46.6882 150.803 47.4238V48.2344H143.254V48.3027C143.299 48.8171 143.4 49.2695 143.557 49.6602C143.719 50.0508 143.941 50.3958 144.221 50.6953C144.507 51.0143 144.852 51.265 145.256 51.4473C145.66 51.6296 146.105 51.7207 146.594 51.7207C147.238 51.7207 147.811 51.5905 148.312 51.3301C148.814 51.0697 149.23 50.7246 149.562 50.2949L150.666 51.1543C150.314 51.6882 149.787 52.1634 149.084 52.5801C148.387 52.9902 147.525 53.1953 146.496 53.1953ZM146.262 43.7227C145.897 43.7227 145.552 43.791 145.227 43.9277C144.901 44.0579 144.608 44.25 144.348 44.5039C144.087 44.7643 143.866 45.0833 143.684 45.4609C143.508 45.832 143.384 46.2617 143.312 46.75H148.996V46.6621C148.996 46.3366 148.934 45.9883 148.811 45.6172C148.687 45.2396 148.514 44.9141 148.293 44.6406C148.072 44.3672 147.792 44.1458 147.453 43.9766C147.121 43.8073 146.724 43.7227 146.262 43.7227Z" fill="#27D72E"/>
<path d="M50.2363 77.7305C50.5618 77.7305 50.8776 77.6784 51.1836 77.5742C51.4961 77.4701 51.7728 77.3236 52.0137 77.1348C52.2546 76.9525 52.4466 76.7376 52.5898 76.4902C52.7396 76.2363 52.8177 75.9629 52.8242 75.6699H54.5332C54.5267 76.1387 54.403 76.5879 54.1621 77.0176C53.9277 77.4408 53.612 77.8118 53.2148 78.1309C52.8177 78.4564 52.362 78.7168 51.8477 78.9121C51.3333 79.1009 50.7962 79.1953 50.2363 79.1953C49.4355 79.1953 48.7357 79.0521 48.1367 78.7656C47.5378 78.4792 47.0397 78.0918 46.6426 77.6035C46.2389 77.1217 45.9362 76.5651 45.7344 75.9336C45.5326 75.2956 45.4316 74.625 45.4316 73.9219V73.5117C45.4316 72.8151 45.5326 72.1478 45.7344 71.5098C45.9362 70.8717 46.2389 70.3086 46.6426 69.8203C47.0397 69.3385 47.5378 68.9544 48.1367 68.668C48.7357 68.3815 49.4355 68.2383 50.2363 68.2383C50.8613 68.2383 51.4342 68.3392 51.9551 68.541C52.4824 68.7363 52.9382 69.0033 53.3223 69.3418C53.6999 69.6868 53.9961 70.0938 54.2109 70.5625C54.4258 71.0312 54.5332 71.5326 54.5332 72.0664H52.8242C52.8177 71.7474 52.7461 71.4479 52.6094 71.168C52.4792 70.8815 52.3001 70.6309 52.0723 70.416C51.8444 70.2012 51.571 70.0319 51.252 69.9082C50.9395 69.7845 50.6009 69.7227 50.2363 69.7227C49.6764 69.7227 49.2044 69.8366 48.8203 70.0645C48.4427 70.2858 48.1367 70.5755 47.9023 70.9336C47.668 71.2982 47.4987 71.7051 47.3945 72.1543C47.2969 72.6035 47.248 73.056 47.248 73.5117V73.9219C47.248 74.3841 47.2969 74.8431 47.3945 75.2988C47.4987 75.748 47.668 76.1517 47.9023 76.5098C48.1302 76.8743 48.4329 77.1706 48.8105 77.3984C49.1947 77.6198 49.6699 77.7305 50.2363 77.7305ZM57.2383 73.6191C57.2383 72.8574 57.349 72.151 57.5703 71.5C57.7917 70.8424 58.1107 70.2728 58.5273 69.791C58.9375 69.3092 59.4388 68.9316 60.0312 68.6582C60.6237 68.3783 61.291 68.2383 62.0332 68.2383C62.7819 68.2383 63.4525 68.3783 64.0449 68.6582C64.6439 68.9316 65.1517 69.3092 65.5684 69.791C65.9785 70.2728 66.2943 70.8424 66.5156 71.5C66.737 72.151 66.8477 72.8574 66.8477 73.6191V73.834C66.8477 74.5957 66.737 75.3021 66.5156 75.9531C66.2943 76.6042 65.9785 77.1706 65.5684 77.6523C65.1517 78.1341 64.6471 78.5117 64.0547 78.7852C63.4622 79.0586 62.7949 79.1953 62.0527 79.1953C61.304 79.1953 60.6302 79.0586 60.0312 78.7852C59.4388 78.5117 58.9375 78.1341 58.5273 77.6523C58.1107 77.1706 57.7917 76.6042 57.5703 75.9531C57.349 75.3021 57.2383 74.5957 57.2383 73.834V73.6191ZM59.0449 73.834C59.0449 74.3548 59.1068 74.8529 59.2305 75.3281C59.3542 75.7969 59.543 76.2103 59.7969 76.5684C60.0443 76.9264 60.3568 77.2096 60.7344 77.418C61.112 77.6263 61.5514 77.7305 62.0527 77.7305C62.5475 77.7305 62.9805 77.6263 63.3516 77.418C63.7292 77.2096 64.0449 76.9264 64.2988 76.5684C64.5462 76.2103 64.7318 75.7969 64.8555 75.3281C64.9792 74.8529 65.041 74.3548 65.041 73.834V73.6191C65.041 73.1048 64.9759 72.6133 64.8457 72.1445C64.722 71.6693 64.5365 71.2526 64.2891 70.8945C64.0352 70.5365 63.7194 70.2533 63.3418 70.0449C62.9707 69.8301 62.5345 69.7227 62.0332 69.7227C61.5319 69.7227 61.0957 69.8301 60.7246 70.0449C60.3535 70.2533 60.0443 70.5365 59.7969 70.8945C59.543 71.2526 59.3542 71.6693 59.2305 72.1445C59.1068 72.6133 59.0449 73.1048 59.0449 73.6191V73.834ZM70.041 64H75.4414V77.4375H78.8887V79H70.041V77.4375H73.6348V65.5723H70.041V64ZM81.2617 73.6191C81.2617 72.8574 81.3724 72.151 81.5938 71.5C81.8151 70.8424 82.1341 70.2728 82.5508 69.791C82.9609 69.3092 83.4622 68.9316 84.0547 68.6582C84.6471 68.3783 85.3145 68.2383 86.0566 68.2383C86.8053 68.2383 87.4759 68.3783 88.0684 68.6582C88.6673 68.9316 89.1751 69.3092 89.5918 69.791C90.002 70.2728 90.3177 70.8424 90.5391 71.5C90.7604 72.151 90.8711 72.8574 90.8711 73.6191V73.834C90.8711 74.5957 90.7604 75.3021 90.5391 75.9531C90.3177 76.6042 90.002 77.1706 89.5918 77.6523C89.1751 78.1341 88.6706 78.5117 88.0781 78.7852C87.4857 79.0586 86.8184 79.1953 86.0762 79.1953C85.3275 79.1953 84.6536 79.0586 84.0547 78.7852C83.4622 78.5117 82.9609 78.1341 82.5508 77.6523C82.1341 77.1706 81.8151 76.6042 81.5938 75.9531C81.3724 75.3021 81.2617 74.5957 81.2617 73.834V73.6191ZM83.0684 73.834C83.0684 74.3548 83.1302 74.8529 83.2539 75.3281C83.3776 75.7969 83.5664 76.2103 83.8203 76.5684C84.0677 76.9264 84.3802 77.2096 84.7578 77.418C85.1354 77.6263 85.5749 77.7305 86.0762 77.7305C86.571 77.7305 87.0039 77.6263 87.375 77.418C87.7526 77.2096 88.0684 76.9264 88.3223 76.5684C88.5697 76.2103 88.7552 75.7969 88.8789 75.3281C89.0026 74.8529 89.0645 74.3548 89.0645 73.834V73.6191C89.0645 73.1048 88.9993 72.6133 88.8691 72.1445C88.7454 71.6693 88.5599 71.2526 88.3125 70.8945C88.0586 70.5365 87.7428 70.2533 87.3652 70.0449C86.9941 69.8301 86.5579 69.7227 86.0566 69.7227C85.5553 69.7227 85.1191 69.8301 84.748 70.0449C84.377 70.2533 84.0677 70.5365 83.8203 70.8945C83.5664 71.2526 83.3776 71.6693 83.2539 72.1445C83.1302 72.6133 83.0684 73.1048 83.0684 73.6191V73.834ZM100.705 68.2383C101.037 68.2383 101.382 68.2611 101.74 68.3066C102.105 68.3522 102.378 68.4141 102.561 68.4922L102.316 70.2598C101.965 70.1816 101.63 70.1263 101.311 70.0938C100.998 70.0547 100.669 70.0352 100.324 70.0352C99.8815 70.0352 99.4811 70.0905 99.123 70.2012C98.765 70.3053 98.4525 70.4616 98.1855 70.6699C97.9447 70.8522 97.7331 71.0768 97.5508 71.3438C97.375 71.6042 97.2285 71.8971 97.1113 72.2227V79H95.2949V68.4336H97.0137L97.0918 69.8496L97.1016 70.1133C97.5312 69.5339 98.0456 69.0781 98.6445 68.7461C99.25 68.4076 99.9368 68.2383 100.705 68.2383ZM109.426 77.8281C109.426 77.444 109.543 77.1152 109.777 76.8418C110.012 76.5684 110.367 76.4316 110.842 76.4316C111.311 76.4316 111.665 76.5684 111.906 76.8418C112.154 77.1087 112.277 77.4375 112.277 77.8281C112.277 78.2122 112.154 78.5345 111.906 78.7949C111.659 79.0553 111.304 79.1855 110.842 79.1855C110.373 79.1855 110.018 79.0553 109.777 78.7949C109.543 78.528 109.426 78.2057 109.426 77.8281ZM109.426 69.2734C109.426 68.8893 109.543 68.5605 109.777 68.2871C110.012 68.0137 110.367 67.877 110.842 67.877C111.311 67.877 111.665 68.0137 111.906 68.2871C112.154 68.554 112.277 68.8828 112.277 69.2734C112.277 69.6576 112.154 69.9798 111.906 70.2402C111.659 70.5007 111.304 70.6309 110.842 70.6309C110.373 70.6309 110.018 70.5007 109.777 70.2402C109.543 69.9733 109.426 69.651 109.426 69.2734ZM130.666 83.2676C130.497 83.2676 130.298 83.248 130.07 83.209C129.842 83.1699 129.67 83.1374 129.553 83.1113L129.846 81.6367C130.008 81.6497 130.168 81.6595 130.324 81.666C130.487 81.679 130.614 81.6855 130.705 81.6855C130.952 81.6855 131.177 81.6172 131.379 81.4805C131.587 81.3438 131.773 81.181 131.936 80.9922C132.092 80.8034 132.225 80.6081 132.336 80.4062C132.453 80.2044 132.544 80.0384 132.609 79.9082L133.332 78.502L128.781 68.4336H130.803L133.703 75.25L134.172 76.5293L134.67 75.2891L137.395 68.4336H139.416L134.055 80.6309C133.931 80.9043 133.771 81.194 133.576 81.5C133.387 81.806 133.156 82.0892 132.883 82.3496C132.609 82.61 132.29 82.8281 131.926 83.0039C131.561 83.1797 131.141 83.2676 130.666 83.2676ZM146.496 79.1953C145.754 79.1953 145.07 79.0684 144.445 78.8145C143.827 78.5605 143.296 78.2057 142.854 77.75C142.411 77.2943 142.066 76.7539 141.818 76.1289C141.571 75.5039 141.447 74.8236 141.447 74.0879V73.6777C141.447 72.8249 141.584 72.0632 141.857 71.3926C142.131 70.7155 142.495 70.1426 142.951 69.6738C143.4 69.2116 143.911 68.8568 144.484 68.6094C145.064 68.362 145.656 68.2383 146.262 68.2383C147.023 68.2383 147.688 68.3717 148.254 68.6387C148.827 68.8991 149.302 69.2604 149.68 69.7227C150.057 70.1914 150.337 70.7415 150.52 71.373C150.708 72.0046 150.803 72.6882 150.803 73.4238V74.2344H143.254V74.3027C143.299 74.8171 143.4 75.2695 143.557 75.6602C143.719 76.0508 143.941 76.3958 144.221 76.6953C144.507 77.0143 144.852 77.265 145.256 77.4473C145.66 77.6296 146.105 77.7207 146.594 77.7207C147.238 77.7207 147.811 77.5905 148.312 77.3301C148.814 77.0697 149.23 76.7246 149.562 76.2949L150.666 77.1543C150.314 77.6882 149.787 78.1634 149.084 78.5801C148.387 78.9902 147.525 79.1953 146.496 79.1953ZM146.262 69.7227C145.897 69.7227 145.552 69.791 145.227 69.9277C144.901 70.0579 144.608 70.25 144.348 70.5039C144.087 70.7643 143.866 71.0833 143.684 71.4609C143.508 71.832 143.384 72.2617 143.312 72.75H148.996V72.6621C148.996 72.3366 148.934 71.9883 148.811 71.6172C148.687 71.2396 148.514 70.9141 148.293 70.6406C148.072 70.3672 147.792 70.1458 147.453 69.9766C147.121 69.8073 146.724 69.7227 146.262 69.7227ZM154.123 64H159.523V77.4375H162.971V79H154.123V77.4375H157.717V65.5723H154.123V64ZM166.135 64H171.535V77.4375H174.982V79H166.135V77.4375H169.729V65.5723H166.135V64ZM177.355 73.6191C177.355 72.8574 177.466 72.151 177.688 71.5C177.909 70.8424 178.228 70.2728 178.645 69.791C179.055 69.3092 179.556 68.9316 180.148 68.6582C180.741 68.3783 181.408 68.2383 182.15 68.2383C182.899 68.2383 183.57 68.3783 184.162 68.6582C184.761 68.9316 185.269 69.3092 185.686 69.791C186.096 70.2728 186.411 70.8424 186.633 71.5C186.854 72.151 186.965 72.8574 186.965 73.6191V73.834C186.965 74.5957 186.854 75.3021 186.633 75.9531C186.411 76.6042 186.096 77.1706 185.686 77.6523C185.269 78.1341 184.764 78.5117 184.172 78.7852C183.579 79.0586 182.912 79.1953 182.17 79.1953C181.421 79.1953 180.747 79.0586 180.148 78.7852C179.556 78.5117 179.055 78.1341 178.645 77.6523C178.228 77.1706 177.909 76.6042 177.688 75.9531C177.466 75.3021 177.355 74.5957 177.355 73.834V73.6191ZM179.162 73.834C179.162 74.3548 179.224 74.8529 179.348 75.3281C179.471 75.7969 179.66 76.2103 179.914 76.5684C180.161 76.9264 180.474 77.2096 180.852 77.418C181.229 77.6263 181.669 77.7305 182.17 77.7305C182.665 77.7305 183.098 77.6263 183.469 77.418C183.846 77.2096 184.162 76.9264 184.416 76.5684C184.663 76.2103 184.849 75.7969 184.973 75.3281C185.096 74.8529 185.158 74.3548 185.158 73.834V73.6191C185.158 73.1048 185.093 72.6133 184.963 72.1445C184.839 71.6693 184.654 71.2526 184.406 70.8945C184.152 70.5365 183.837 70.2533 183.459 70.0449C183.088 69.8301 182.652 69.7227 182.15 69.7227C181.649 69.7227 181.213 69.8301 180.842 70.0449C180.471 70.2533 180.161 70.5365 179.914 70.8945C179.66 71.2526 179.471 71.6693 179.348 72.1445C179.224 72.6133 179.162 73.1048 179.162 73.6191V73.834ZM190.891 79L188.645 68.4336H190.246L191.477 75.1719L191.691 76.6855L191.955 75.1719L193.645 68.4336H194.807L196.486 75.1719L196.77 76.832L197.033 75.1719L198.205 68.4336H199.807L197.561 79H196.135L194.484 72.5254L194.211 70.8848L193.947 72.5254L192.316 79H190.891Z" fill="black"/>
<path d="M173.703 56.5742C173.072 56.5547 172.525 56.4082 172.062 56.1348C171.6 55.8613 171.216 55.5 170.91 55.0508C170.617 54.6211 170.396 54.1393 170.246 53.6055C170.096 53.0781 170.021 52.554 170.021 52.0332V50.3828C170.021 49.4453 169.797 48.765 169.348 48.3418C168.905 47.9186 168.225 47.7038 167.307 47.6973V46.2812C168.225 46.2812 168.905 46.0729 169.348 45.6562C169.797 45.2331 170.021 44.5495 170.021 43.6055V41.9453C170.021 41.418 170.09 40.8809 170.227 40.334C170.37 39.7806 170.594 39.2858 170.9 38.8496C171.187 38.4329 171.561 38.0944 172.023 37.834C172.486 37.5671 173.046 37.4238 173.703 37.4043L173.908 38.5273C173.439 38.5404 173.065 38.651 172.785 38.8594C172.512 39.0677 172.307 39.3314 172.17 39.6504C172.027 39.9759 171.936 40.3405 171.896 40.7441C171.857 41.1478 171.838 41.5482 171.838 41.9453V43.6055C171.838 44.3867 171.656 45.0736 171.291 45.666C170.933 46.252 170.376 46.6979 169.621 47.0039C170.376 47.3034 170.933 47.7493 171.291 48.3418C171.649 48.9277 171.831 49.6081 171.838 50.3828V52.0332C171.838 52.4368 171.87 52.8372 171.936 53.2344C172.001 53.638 172.115 53.9993 172.277 54.3184C172.434 54.6439 172.642 54.9108 172.902 55.1191C173.169 55.3275 173.505 55.4382 173.908 55.4512L173.703 56.5742ZM205.432 69.2734C205.432 68.8893 205.549 68.5605 205.783 68.2871C206.018 68.0137 206.372 67.877 206.848 67.877C207.316 67.877 207.671 68.0137 207.912 68.2871C208.16 68.554 208.283 68.8828 208.283 69.2734C208.283 69.6576 208.16 69.9798 207.912 70.2402C207.665 70.5007 207.31 70.6309 206.848 70.6309C206.379 70.6309 206.024 70.5007 205.783 70.2402C205.549 69.9733 205.432 69.651 205.432 69.2734ZM207.756 78.5801C207.756 79.2311 207.603 79.8952 207.297 80.5723C206.991 81.2493 206.577 81.819 206.057 82.2812L204.934 81.666C205.246 81.2103 205.467 80.7253 205.598 80.2109C205.728 79.6966 205.793 79.1628 205.793 78.6094V76.8613H207.756V78.5801ZM11.1543 107.451C11.5514 107.438 11.8835 107.327 12.1504 107.119C12.4173 106.911 12.6322 106.644 12.7949 106.318C12.9512 105.999 13.0618 105.638 13.127 105.234C13.1986 104.837 13.2344 104.437 13.2344 104.033V102.383C13.2344 101.868 13.3092 101.393 13.459 100.957C13.6152 100.521 13.8529 100.143 14.1719 99.8242C14.3411 99.6549 14.5299 99.502 14.7383 99.3652C14.9531 99.2285 15.1875 99.1081 15.4414 99.0039C15.181 98.8997 14.9401 98.776 14.7188 98.6328C14.5039 98.4896 14.3151 98.3301 14.1523 98.1543C13.8398 97.8288 13.6087 97.4512 13.459 97.0215C13.3092 96.5853 13.2344 96.1133 13.2344 95.6055V93.9453C13.2344 93.5482 13.2116 93.1478 13.166 92.7441C13.127 92.3405 13.0391 91.9759 12.9023 91.6504C12.7591 91.3314 12.5508 91.0677 12.2773 90.8594C12.0039 90.651 11.6328 90.5404 11.1641 90.5273L11.3594 89.4043C11.9909 89.4238 12.5312 89.5573 12.9805 89.8047C13.4362 90.0521 13.8105 90.3743 14.1035 90.7715C14.4355 91.2207 14.6732 91.7253 14.8164 92.2852C14.9661 92.8451 15.041 93.3984 15.041 93.9453V95.6055C15.041 95.9961 15.0768 96.3411 15.1484 96.6406C15.2266 96.9336 15.3405 97.1875 15.4902 97.4023C15.7051 97.7083 16.0013 97.9329 16.3789 98.0762C16.763 98.2129 17.222 98.2812 17.7559 98.2812V99.6973C17.2871 99.7038 16.877 99.7624 16.5254 99.873C16.1803 99.9772 15.8971 100.143 15.6758 100.371C15.4609 100.592 15.3014 100.869 15.1973 101.201C15.0931 101.533 15.041 101.927 15.041 102.383V104.033C15.041 104.554 14.9694 105.078 14.8262 105.605C14.6829 106.139 14.4616 106.624 14.1621 107.061C13.8561 107.497 13.472 107.855 13.0098 108.135C12.5475 108.415 11.9974 108.561 11.3594 108.574L11.1543 107.451Z" fill="#E91E63"/>
<line x1="9.99632" y1="35.5" x2="148.996" y2="34.478" stroke="#673AB7" stroke-dasharray="2 2"/>
<path d="M58.8068 26.9205L57.9034 27.1761C57.8466 27.0256 57.7628 26.8793 57.652 26.7372C57.544 26.5923 57.3963 26.473 57.2088 26.3793C57.0213 26.2855 56.7812 26.2386 56.4886 26.2386C56.0881 26.2386 55.7543 26.331 55.4872 26.5156C55.223 26.6974 55.0909 26.929 55.0909 27.2102C55.0909 27.4602 55.1818 27.6577 55.3636 27.8026C55.5455 27.9474 55.8295 28.0682 56.2159 28.1648L57.1875 28.4034C57.7727 28.5455 58.2088 28.7628 58.4957 29.0554C58.7827 29.3452 58.9261 29.7187 58.9261 30.1761C58.9261 30.5511 58.8182 30.8864 58.6023 31.1818C58.3892 31.4773 58.0909 31.7102 57.7074 31.8807C57.3239 32.0511 56.8778 32.1364 56.3693 32.1364C55.7017 32.1364 55.1491 31.9915 54.7116 31.7017C54.2741 31.4119 53.9972 30.9886 53.8807 30.4318L54.8352 30.1932C54.9261 30.5455 55.098 30.8097 55.3509 30.9858C55.6065 31.1619 55.9403 31.25 56.3523 31.25C56.821 31.25 57.1932 31.1506 57.4688 30.9517C57.7472 30.75 57.8864 30.5085 57.8864 30.2273C57.8864 30 57.8068 29.8097 57.6477 29.6562C57.4886 29.5 57.2443 29.3835 56.9148 29.3068L55.8239 29.0511C55.2244 28.9091 54.7841 28.6889 54.5028 28.3906C54.2244 28.0895 54.0852 27.7131 54.0852 27.2614C54.0852 26.892 54.1889 26.5653 54.3963 26.2812C54.6065 25.9972 54.892 25.7741 55.2528 25.6122C55.6165 25.4503 56.0284 25.3693 56.4886 25.3693C57.1364 25.3693 57.6449 25.5114 58.0142 25.7955C58.3864 26.0795 58.6506 26.4545 58.8068 26.9205ZM63.1843 32.1364C62.5536 32.1364 62.0096 31.9972 61.5522 31.7188C61.0977 31.4375 60.7468 31.0455 60.4996 30.5426C60.2553 30.0369 60.1332 29.4489 60.1332 28.7784C60.1332 28.108 60.2553 27.517 60.4996 27.0057C60.7468 26.4915 61.0906 26.0909 61.5309 25.804C61.9741 25.5142 62.4911 25.3693 63.082 25.3693C63.4229 25.3693 63.7596 25.4261 64.092 25.5398C64.4244 25.6534 64.7269 25.8381 64.9996 26.0938C65.2724 26.3466 65.4897 26.6818 65.6516 27.0994C65.8136 27.517 65.8945 28.0312 65.8945 28.642V29.0682H60.8491V28.1989H64.8718C64.8718 27.8295 64.7979 27.5 64.6502 27.2102C64.5053 26.9205 64.2979 26.6918 64.0281 26.5241C63.761 26.3565 63.4457 26.2727 63.082 26.2727C62.6815 26.2727 62.3349 26.3722 62.0423 26.571C61.7525 26.767 61.5295 27.0227 61.3732 27.3381C61.217 27.6534 61.1388 27.9915 61.1388 28.3523V28.9318C61.1388 29.4261 61.2241 29.8452 61.3945 30.1889C61.5678 30.5298 61.8079 30.7898 62.1147 30.9688C62.4215 31.1449 62.7781 31.233 63.1843 31.233C63.4485 31.233 63.6871 31.196 63.9002 31.1222C64.1161 31.0455 64.3022 30.9318 64.4585 30.7812C64.6147 30.6278 64.7354 30.4375 64.8207 30.2102L65.7923 30.483C65.69 30.8125 65.5181 31.1023 65.2766 31.3523C65.0352 31.5994 64.7369 31.7926 64.3817 31.9318C64.0266 32.0682 63.6275 32.1364 63.1843 32.1364ZM62.5707 24.5682L63.6104 22.5909H64.7866L63.457 24.5682H62.5707ZM68.43 23.2727V32H67.4244V23.2727H68.43ZM73.0163 32.1364C72.3857 32.1364 71.8416 31.9972 71.3842 31.7188C70.9297 31.4375 70.5788 31.0455 70.3317 30.5426C70.0874 30.0369 69.9652 29.4489 69.9652 28.7784C69.9652 28.108 70.0874 27.517 70.3317 27.0057C70.5788 26.4915 70.9226 26.0909 71.3629 25.804C71.8061 25.5142 72.3232 25.3693 72.9141 25.3693C73.255 25.3693 73.5916 25.4261 73.924 25.5398C74.2564 25.6534 74.5589 25.8381 74.8317 26.0938C75.1044 26.3466 75.3217 26.6818 75.4837 27.0994C75.6456 27.517 75.7266 28.0312 75.7266 28.642V29.0682H70.6811V28.1989H74.7038C74.7038 27.8295 74.63 27.5 74.4822 27.2102C74.3374 26.9205 74.13 26.6918 73.8601 26.5241C73.593 26.3565 73.2777 26.2727 72.9141 26.2727C72.5135 26.2727 72.1669 26.3722 71.8743 26.571C71.5845 26.767 71.3615 27.0227 71.2053 27.3381C71.049 27.6534 70.9709 27.9915 70.9709 28.3523V28.9318C70.9709 29.4261 71.0561 29.8452 71.2266 30.1889C71.3999 30.5298 71.6399 30.7898 71.9467 30.9688C72.2536 31.1449 72.6101 31.233 73.0163 31.233C73.2805 31.233 73.5192 31.196 73.7322 31.1222C73.9482 31.0455 74.1342 30.9318 74.2905 30.7812C74.4467 30.6278 74.5675 30.4375 74.6527 30.2102L75.6243 30.483C75.522 30.8125 75.3501 31.1023 75.1087 31.3523C74.8672 31.5994 74.5689 31.7926 74.2138 31.9318C73.8587 32.0682 73.4595 32.1364 73.0163 32.1364ZM79.9155 32.1364C79.3018 32.1364 78.7734 31.9915 78.3303 31.7017C77.8871 31.4119 77.5462 31.0128 77.3075 30.5043C77.0689 29.9957 76.9496 29.4148 76.9496 28.7614C76.9496 28.0966 77.0717 27.5099 77.3161 27.0014C77.5632 26.4901 77.907 26.0909 78.3473 25.804C78.7905 25.5142 79.3075 25.3693 79.8984 25.3693C80.3587 25.3693 80.7734 25.4545 81.1428 25.625C81.5121 25.7955 81.8146 26.0341 82.0504 26.3409C82.2862 26.6477 82.4325 27.0057 82.4893 27.4148H81.4837C81.407 27.1165 81.2365 26.8523 80.9723 26.6222C80.7109 26.3892 80.3587 26.2727 79.9155 26.2727C79.5234 26.2727 79.1797 26.375 78.8842 26.5795C78.5916 26.7812 78.3629 27.0668 78.1982 27.4361C78.0362 27.8026 77.9553 28.233 77.9553 28.7273C77.9553 29.233 78.0348 29.6733 78.1939 30.0483C78.3558 30.4233 78.5831 30.7145 78.8757 30.9219C79.1712 31.1293 79.5178 31.233 79.9155 31.233C80.1768 31.233 80.4141 31.1875 80.6271 31.0966C80.8402 31.0057 81.0206 30.875 81.1683 30.7045C81.3161 30.5341 81.4212 30.3295 81.4837 30.0909H82.4893C82.4325 30.4773 82.2919 30.8253 82.0675 31.1349C81.8459 31.4418 81.5518 31.6861 81.1854 31.8679C80.8217 32.0469 80.3984 32.1364 79.9155 32.1364ZM86.8061 25.4545V26.3068H83.4141V25.4545H86.8061ZM84.4027 23.8864H85.4084V30.125C85.4084 30.4091 85.4496 30.6222 85.532 30.7642C85.6172 30.9034 85.7251 30.9972 85.8558 31.0455C85.9893 31.0909 86.13 31.1136 86.2777 31.1136C86.3885 31.1136 86.4794 31.108 86.5504 31.0966C86.6214 31.0824 86.6783 31.071 86.7209 31.0625L86.9254 31.9659C86.8572 31.9915 86.7621 32.017 86.6399 32.0426C86.5178 32.071 86.3629 32.0852 86.1754 32.0852C85.8913 32.0852 85.6129 32.0241 85.3402 31.902C85.0703 31.7798 84.8459 31.5938 84.6669 31.3438C84.4908 31.0938 84.4027 30.7784 84.4027 30.3977V23.8864ZM90.9929 32.1364C90.3622 32.1364 89.8182 31.9972 89.3608 31.7188C88.9062 31.4375 88.5554 31.0455 88.3082 30.5426C88.0639 30.0369 87.9418 29.4489 87.9418 28.7784C87.9418 28.108 88.0639 27.517 88.3082 27.0057C88.5554 26.4915 88.8991 26.0909 89.3395 25.804C89.7827 25.5142 90.2997 25.3693 90.8906 25.3693C91.2315 25.3693 91.5682 25.4261 91.9006 25.5398C92.233 25.6534 92.5355 25.8381 92.8082 26.0938C93.081 26.3466 93.2983 26.6818 93.4602 27.0994C93.6222 27.517 93.7031 28.0312 93.7031 28.642V29.0682H88.6577V28.1989H92.6804C92.6804 27.8295 92.6065 27.5 92.4588 27.2102C92.3139 26.9205 92.1065 26.6918 91.8366 26.5241C91.5696 26.3565 91.2543 26.2727 90.8906 26.2727C90.4901 26.2727 90.1435 26.3722 89.8509 26.571C89.5611 26.767 89.3381 27.0227 89.1818 27.3381C89.0256 27.6534 88.9474 27.9915 88.9474 28.3523V28.9318C88.9474 29.4261 89.0327 29.8452 89.2031 30.1889C89.3764 30.5298 89.6165 30.7898 89.9233 30.9688C90.2301 31.1449 90.5866 31.233 90.9929 31.233C91.2571 31.233 91.4957 31.196 91.7088 31.1222C91.9247 31.0455 92.1108 30.9318 92.267 30.7812C92.4233 30.6278 92.544 30.4375 92.6293 30.2102L93.6009 30.483C93.4986 30.8125 93.3267 31.1023 93.0852 31.3523C92.8438 31.5994 92.5455 31.7926 92.1903 31.9318C91.8352 32.0682 91.4361 32.1364 90.9929 32.1364ZM99.358 29.3239V25.4545H100.364V32H99.358V30.892H99.2898C99.1364 31.2244 98.8977 31.5071 98.5739 31.7401C98.25 31.9702 97.8409 32.0852 97.3466 32.0852C96.9375 32.0852 96.5739 31.9957 96.2557 31.8168C95.9375 31.6349 95.6875 31.3622 95.5057 30.9986C95.3239 30.6321 95.233 30.1705 95.233 29.6136V25.4545H96.2386V29.5455C96.2386 30.0227 96.3722 30.4034 96.6392 30.6875C96.9091 30.9716 97.2528 31.1136 97.6705 31.1136C97.9205 31.1136 98.1747 31.0497 98.4332 30.9219C98.6946 30.794 98.9134 30.598 99.0895 30.3338C99.2685 30.0696 99.358 29.733 99.358 29.3239ZM102.206 32V25.4545H103.177V26.4432H103.245C103.365 26.1193 103.581 25.8565 103.893 25.6548C104.206 25.4531 104.558 25.3523 104.95 25.3523C105.024 25.3523 105.116 25.3537 105.227 25.3565C105.338 25.3594 105.422 25.3636 105.478 25.3693V26.392C105.444 26.3835 105.366 26.3707 105.244 26.3537C105.125 26.3338 104.998 26.3239 104.865 26.3239C104.547 26.3239 104.262 26.3906 104.012 26.5241C103.765 26.6548 103.569 26.8366 103.424 27.0696C103.282 27.2997 103.211 27.5625 103.211 27.858V32H102.206Z" fill="#673AB7"/>
<path d="M93.6605 156V147.273H95.7699V154.287H99.4006V156H93.6605ZM102.498 156H100.23L103.175 147.273H105.983L108.928 156H106.661L104.611 149.472H104.543L102.498 156ZM102.195 152.565H106.934V154.168H102.195V152.565ZM117.295 147.273V156H115.505L112.032 150.963H111.977V156H109.868V147.273H111.683L115.118 152.301H115.19V147.273H117.295ZM124.349 150.124C124.3 149.945 124.229 149.787 124.136 149.651C124.042 149.511 123.927 149.393 123.79 149.297C123.654 149.2 123.498 149.128 123.322 149.08C123.146 149.028 122.952 149.003 122.742 149.003C122.319 149.003 121.952 149.105 121.643 149.31C121.336 149.514 121.099 149.812 120.931 150.205C120.763 150.594 120.68 151.067 120.68 151.624C120.68 152.183 120.761 152.661 120.923 153.055C121.085 153.45 121.319 153.751 121.626 153.959C121.933 154.166 122.305 154.27 122.742 154.27C123.129 154.27 123.455 154.207 123.722 154.082C123.992 153.955 124.197 153.774 124.336 153.541C124.475 153.308 124.545 153.034 124.545 152.719L124.937 152.766H122.815V151.227H126.577V152.382C126.577 153.163 126.411 153.832 126.079 154.389C125.749 154.946 125.295 155.374 124.715 155.672C124.138 155.97 123.475 156.119 122.725 156.119C121.893 156.119 121.161 155.939 120.531 155.578C119.9 155.217 119.408 154.703 119.056 154.036C118.704 153.365 118.528 152.57 118.528 151.649C118.528 150.933 118.634 150.298 118.847 149.744C119.06 149.187 119.357 148.716 119.738 148.33C120.121 147.943 120.565 147.651 121.067 147.452C121.573 147.253 122.117 147.153 122.7 147.153C123.205 147.153 123.675 147.226 124.11 147.371C124.548 147.516 124.934 147.72 125.269 147.984C125.607 148.249 125.881 148.562 126.092 148.926C126.302 149.29 126.433 149.689 126.484 150.124H124.349ZM129.439 156H127.172L130.116 147.273H132.925L135.869 156H133.602L131.553 149.472H131.484L129.439 156ZM129.136 152.565H133.875V154.168H129.136V152.565ZM142.126 150.124C142.078 149.945 142.007 149.787 141.913 149.651C141.819 149.511 141.704 149.393 141.568 149.297C141.431 149.2 141.275 149.128 141.099 149.08C140.923 149.028 140.73 149.003 140.52 149.003C140.096 149.003 139.73 149.105 139.42 149.31C139.113 149.514 138.876 149.812 138.708 150.205C138.541 150.594 138.457 151.067 138.457 151.624C138.457 152.183 138.538 152.661 138.7 153.055C138.862 153.45 139.096 153.751 139.403 153.959C139.71 154.166 140.082 154.27 140.52 154.27C140.906 154.27 141.233 154.207 141.5 154.082C141.77 153.955 141.974 153.774 142.113 153.541C142.252 153.308 142.322 153.034 142.322 152.719L142.714 152.766H140.592V151.227H144.355V152.382C144.355 153.163 144.189 153.832 143.856 154.389C143.527 154.946 143.072 155.374 142.493 155.672C141.916 155.97 141.252 156.119 140.502 156.119C139.67 156.119 138.939 155.939 138.308 155.578C137.677 155.217 137.186 154.703 136.833 154.036C136.481 153.365 136.305 152.57 136.305 151.649C136.305 150.933 136.412 150.298 136.625 149.744C136.838 149.187 137.135 148.716 137.515 148.33C137.899 147.943 138.342 147.651 138.845 147.452C139.35 147.253 139.895 147.153 140.477 147.153C140.983 147.153 141.453 147.226 141.887 147.371C142.325 147.516 142.711 147.72 143.047 147.984C143.385 148.249 143.659 148.562 143.869 148.926C144.079 149.29 144.21 149.689 144.261 150.124H142.126ZM145.598 156V147.273H151.683V148.986H147.707V150.776H151.372V152.493H147.707V154.287H151.683V156H145.598ZM163.504 150.435H161.374C161.345 150.216 161.287 150.018 161.199 149.842C161.111 149.666 160.994 149.516 160.849 149.391C160.705 149.266 160.533 149.17 160.334 149.105C160.138 149.037 159.92 149.003 159.682 149.003C159.259 149.003 158.893 149.107 158.587 149.314C158.283 149.521 158.048 149.821 157.884 150.213C157.722 150.605 157.641 151.08 157.641 151.636C157.641 152.216 157.723 152.702 157.888 153.094C158.055 153.483 158.29 153.777 158.591 153.976C158.895 154.172 159.254 154.27 159.669 154.27C159.902 154.27 160.114 154.24 160.304 154.18C160.497 154.121 160.666 154.034 160.811 153.92C160.959 153.804 161.08 153.663 161.173 153.499C161.27 153.331 161.337 153.142 161.374 152.932L163.504 152.945C163.467 153.331 163.355 153.712 163.168 154.087C162.983 154.462 162.729 154.804 162.405 155.114C162.081 155.42 161.686 155.665 161.22 155.847C160.757 156.028 160.226 156.119 159.626 156.119C158.837 156.119 158.129 155.946 157.504 155.599C156.882 155.25 156.391 154.741 156.03 154.074C155.669 153.406 155.489 152.594 155.489 151.636C155.489 150.676 155.672 149.862 156.038 149.195C156.405 148.527 156.901 148.02 157.526 147.673C158.151 147.327 158.851 147.153 159.626 147.153C160.155 147.153 160.643 147.227 161.092 147.375C161.541 147.52 161.936 147.733 162.277 148.014C162.618 148.293 162.895 148.635 163.108 149.041C163.321 149.447 163.453 149.912 163.504 150.435ZM169.429 149.889C169.4 149.577 169.274 149.334 169.049 149.161C168.828 148.984 168.511 148.896 168.099 148.896C167.826 148.896 167.599 148.932 167.417 149.003C167.235 149.074 167.099 149.172 167.008 149.297C166.917 149.419 166.87 149.56 166.868 149.719C166.862 149.849 166.887 149.964 166.944 150.064C167.004 150.163 167.089 150.251 167.2 150.328C167.314 150.402 167.45 150.467 167.609 150.524C167.768 150.581 167.947 150.631 168.146 150.673L168.896 150.844C169.328 150.938 169.708 151.062 170.038 151.219C170.37 151.375 170.649 151.561 170.873 151.777C171.1 151.993 171.272 152.241 171.389 152.523C171.505 152.804 171.565 153.119 171.568 153.469C171.565 154.02 171.426 154.493 171.15 154.888C170.875 155.283 170.478 155.585 169.961 155.795C169.447 156.006 168.826 156.111 168.099 156.111C167.369 156.111 166.733 156.001 166.19 155.783C165.647 155.564 165.225 155.232 164.924 154.786C164.623 154.339 164.468 153.776 164.46 153.094H166.48C166.497 153.375 166.572 153.609 166.706 153.797C166.839 153.984 167.022 154.126 167.255 154.223C167.491 154.32 167.764 154.368 168.074 154.368C168.358 154.368 168.599 154.33 168.798 154.253C169 154.176 169.154 154.07 169.262 153.933C169.37 153.797 169.426 153.641 169.429 153.464C169.426 153.3 169.375 153.159 169.275 153.043C169.176 152.923 169.022 152.821 168.815 152.736C168.61 152.648 168.349 152.567 168.031 152.493L167.119 152.28C166.363 152.107 165.768 151.827 165.333 151.44C164.899 151.051 164.683 150.526 164.686 149.864C164.683 149.324 164.828 148.851 165.12 148.445C165.413 148.038 165.818 147.722 166.335 147.494C166.852 147.267 167.441 147.153 168.103 147.153C168.779 147.153 169.366 147.268 169.863 147.499C170.363 147.726 170.751 148.045 171.027 148.457C171.302 148.869 171.443 149.347 171.449 149.889H169.429ZM177.35 149.889C177.322 149.577 177.196 149.334 176.971 149.161C176.75 148.984 176.433 148.896 176.021 148.896C175.748 148.896 175.521 148.932 175.339 149.003C175.157 149.074 175.021 149.172 174.93 149.297C174.839 149.419 174.792 149.56 174.789 149.719C174.784 149.849 174.809 149.964 174.866 150.064C174.926 150.163 175.011 150.251 175.122 150.328C175.235 150.402 175.372 150.467 175.531 150.524C175.69 150.581 175.869 150.631 176.068 150.673L176.818 150.844C177.25 150.938 177.63 151.062 177.96 151.219C178.292 151.375 178.571 151.561 178.795 151.777C179.022 151.993 179.194 152.241 179.311 152.523C179.427 152.804 179.487 153.119 179.49 153.469C179.487 154.02 179.348 154.493 179.072 154.888C178.797 155.283 178.4 155.585 177.883 155.795C177.369 156.006 176.748 156.111 176.021 156.111C175.291 156.111 174.654 156.001 174.112 155.783C173.569 155.564 173.147 155.232 172.846 154.786C172.545 154.339 172.39 153.776 172.382 153.094H174.402C174.419 153.375 174.494 153.609 174.627 153.797C174.761 153.984 174.944 154.126 175.177 154.223C175.413 154.32 175.686 154.368 175.995 154.368C176.279 154.368 176.521 154.33 176.72 154.253C176.922 154.176 177.076 154.07 177.184 153.933C177.292 153.797 177.348 153.641 177.35 153.464C177.348 153.3 177.297 153.159 177.197 153.043C177.098 152.923 176.944 152.821 176.737 152.736C176.532 152.648 176.271 152.567 175.953 152.493L175.041 152.28C174.285 152.107 173.69 151.827 173.255 151.44C172.821 151.051 172.605 150.526 172.608 149.864C172.605 149.324 172.75 148.851 173.042 148.445C173.335 148.038 173.74 147.722 174.257 147.494C174.774 147.267 175.363 147.153 176.025 147.153C176.701 147.153 177.288 147.268 177.785 147.499C178.285 147.726 178.673 148.045 178.949 148.457C179.224 148.869 179.365 149.347 179.37 149.889H177.35Z" fill="#9E9E9E"/>
<path d="M479.661 156V147.273H481.77V154.287H485.401V156H479.661ZM488.498 156H486.23L489.175 147.273H491.983L494.928 156H492.661L490.611 149.472H490.543L488.498 156ZM488.195 152.565H492.934V154.168H488.195V152.565ZM503.295 147.273V156H501.505L498.032 150.963H497.977V156H495.868V147.273H497.683L501.118 152.301H501.19V147.273H503.295ZM510.349 150.124C510.3 149.945 510.229 149.787 510.136 149.651C510.042 149.511 509.927 149.393 509.79 149.297C509.654 149.2 509.498 149.128 509.322 149.08C509.146 149.028 508.952 149.003 508.742 149.003C508.319 149.003 507.952 149.105 507.643 149.31C507.336 149.514 507.099 149.812 506.931 150.205C506.763 150.594 506.68 151.067 506.68 151.624C506.68 152.183 506.761 152.661 506.923 153.055C507.085 153.45 507.319 153.751 507.626 153.959C507.933 154.166 508.305 154.27 508.742 154.27C509.129 154.27 509.455 154.207 509.722 154.082C509.992 153.955 510.197 153.774 510.336 153.541C510.475 153.308 510.545 153.034 510.545 152.719L510.937 152.766H508.815V151.227H512.577V152.382C512.577 153.163 512.411 153.832 512.079 154.389C511.749 154.946 511.295 155.374 510.715 155.672C510.138 155.97 509.475 156.119 508.725 156.119C507.893 156.119 507.161 155.939 506.531 155.578C505.9 155.217 505.408 154.703 505.056 154.036C504.704 153.365 504.528 152.57 504.528 151.649C504.528 150.933 504.634 150.298 504.847 149.744C505.06 149.187 505.357 148.716 505.738 148.33C506.121 147.943 506.565 147.651 507.067 147.452C507.573 147.253 508.117 147.153 508.7 147.153C509.205 147.153 509.675 147.226 510.11 147.371C510.548 147.516 510.934 147.72 511.269 147.984C511.607 148.249 511.881 148.562 512.092 148.926C512.302 149.29 512.433 149.689 512.484 150.124H510.349ZM515.439 156H513.172L516.116 147.273H518.925L521.869 156H519.602L517.553 149.472H517.484L515.439 156ZM515.136 152.565H519.875V154.168H515.136V152.565ZM528.126 150.124C528.078 149.945 528.007 149.787 527.913 149.651C527.819 149.511 527.704 149.393 527.568 149.297C527.431 149.2 527.275 149.128 527.099 149.08C526.923 149.028 526.73 149.003 526.52 149.003C526.096 149.003 525.73 149.105 525.42 149.31C525.113 149.514 524.876 149.812 524.708 150.205C524.541 150.594 524.457 151.067 524.457 151.624C524.457 152.183 524.538 152.661 524.7 153.055C524.862 153.45 525.096 153.751 525.403 153.959C525.71 154.166 526.082 154.27 526.52 154.27C526.906 154.27 527.233 154.207 527.5 154.082C527.77 153.955 527.974 153.774 528.113 153.541C528.252 153.308 528.322 153.034 528.322 152.719L528.714 152.766H526.592V151.227H530.355V152.382C530.355 153.163 530.189 153.832 529.856 154.389C529.527 154.946 529.072 155.374 528.493 155.672C527.916 155.97 527.252 156.119 526.502 156.119C525.67 156.119 524.939 155.939 524.308 155.578C523.677 155.217 523.186 154.703 522.833 154.036C522.481 153.365 522.305 152.57 522.305 151.649C522.305 150.933 522.412 150.298 522.625 149.744C522.838 149.187 523.135 148.716 523.515 148.33C523.899 147.943 524.342 147.651 524.845 147.452C525.35 147.253 525.895 147.153 526.477 147.153C526.983 147.153 527.453 147.226 527.887 147.371C528.325 147.516 528.711 147.72 529.047 147.984C529.385 148.249 529.659 148.562 529.869 148.926C530.079 149.29 530.21 149.689 530.261 150.124H528.126ZM531.598 156V147.273H537.683V148.986H533.707V150.776H537.372V152.493H533.707V154.287H537.683V156H531.598ZM541.582 156V147.273H543.692V150.776H547.131V147.273H549.236V156H547.131V152.493H543.692V156H541.582ZM550.273 148.986V147.273H557.65V148.986H555.004V156H552.924V148.986H550.273ZM558.68 147.273H561.292L563.508 152.676H563.61L565.826 147.273H568.439V156H566.385V150.639H566.312L564.216 155.945H562.903L560.806 150.609H560.734V156H558.68V147.273ZM569.754 156V147.273H571.864V154.287H575.494V156H569.754Z" fill="#9E9E9E"/>
<path d="M369.941 21.0859L361.66 17.3848V15.959L369.941 12.2676V14.1816L363.965 16.5254L363.447 16.6914L363.965 16.8672L369.941 19.1719V21.0859ZM382.666 17.834C382.666 18.2962 382.63 18.7422 382.559 19.1719C382.493 19.5951 382.396 19.9922 382.266 20.3633C382.09 20.8516 381.859 21.291 381.572 21.6816C381.292 22.0658 380.954 22.3848 380.557 22.6387C380.27 22.8145 379.954 22.9512 379.609 23.0488C379.271 23.1465 378.903 23.1953 378.506 23.1953C378.05 23.1953 377.633 23.14 377.256 23.0293C376.885 22.9186 376.549 22.7591 376.25 22.5508C376.107 22.4466 375.97 22.3327 375.84 22.209C375.71 22.0853 375.586 21.9486 375.469 21.7988L375.381 23H373.721V8H375.527V13.5664C375.677 13.3776 375.843 13.2083 376.025 13.0586C376.208 12.9023 376.403 12.7689 376.611 12.6582C376.872 12.5215 377.158 12.4173 377.471 12.3457C377.783 12.2741 378.122 12.2383 378.486 12.2383C378.942 12.2383 379.362 12.3001 379.746 12.4238C380.13 12.5475 380.479 12.7201 380.791 12.9414C381.071 13.1497 381.322 13.4036 381.543 13.7031C381.764 13.9961 381.96 14.3249 382.129 14.6895C382.305 15.0996 382.438 15.5553 382.529 16.0566C382.62 16.5514 382.666 17.0755 382.666 17.6289V17.834ZM380.859 17.6289C380.859 17.2969 380.837 16.9746 380.791 16.6621C380.752 16.3431 380.69 16.0436 380.605 15.7637C380.488 15.4186 380.335 15.1029 380.146 14.8164C379.958 14.5299 379.727 14.3053 379.453 14.1426C379.264 14.0254 379.053 13.9342 378.818 13.8691C378.584 13.804 378.324 13.7715 378.037 13.7715C377.725 13.7715 377.438 13.8138 377.178 13.8984C376.917 13.9766 376.686 14.0872 376.484 14.2305C376.276 14.3802 376.09 14.556 375.928 14.7578C375.771 14.9531 375.638 15.168 375.527 15.4023V20.0215C375.645 20.2559 375.781 20.474 375.938 20.6758C376.1 20.8711 376.286 21.0436 376.494 21.1934C376.702 21.3431 376.937 21.4603 377.197 21.5449C377.458 21.623 377.744 21.6621 378.057 21.6621C378.356 21.6621 378.63 21.6263 378.877 21.5547C379.124 21.4766 379.346 21.3659 379.541 21.2227C379.801 21.0404 380.02 20.8092 380.195 20.5293C380.371 20.2493 380.511 19.9368 380.615 19.5918C380.7 19.3314 380.762 19.0514 380.801 18.752C380.84 18.4525 380.859 18.1465 380.859 17.834V17.6289ZM385.215 17.6191C385.215 16.8574 385.326 16.151 385.547 15.5C385.768 14.8424 386.087 14.2728 386.504 13.791C386.914 13.3092 387.415 12.9316 388.008 12.6582C388.6 12.3783 389.268 12.2383 390.01 12.2383C390.758 12.2383 391.429 12.3783 392.021 12.6582C392.62 12.9316 393.128 13.3092 393.545 13.791C393.955 14.2728 394.271 14.8424 394.492 15.5C394.714 16.151 394.824 16.8574 394.824 17.6191V17.834C394.824 18.5957 394.714 19.3021 394.492 19.9531C394.271 20.6042 393.955 21.1706 393.545 21.6523C393.128 22.1341 392.624 22.5117 392.031 22.7852C391.439 23.0586 390.771 23.1953 390.029 23.1953C389.281 23.1953 388.607 23.0586 388.008 22.7852C387.415 22.5117 386.914 22.1341 386.504 21.6523C386.087 21.1706 385.768 20.6042 385.547 19.9531C385.326 19.3021 385.215 18.5957 385.215 17.834V17.6191ZM387.021 17.834C387.021 18.3548 387.083 18.8529 387.207 19.3281C387.331 19.7969 387.52 20.2103 387.773 20.5684C388.021 20.9264 388.333 21.2096 388.711 21.418C389.089 21.6263 389.528 21.7305 390.029 21.7305C390.524 21.7305 390.957 21.6263 391.328 21.418C391.706 21.2096 392.021 20.9264 392.275 20.5684C392.523 20.2103 392.708 19.7969 392.832 19.3281C392.956 18.8529 393.018 18.3548 393.018 17.834V17.6191C393.018 17.1048 392.952 16.6133 392.822 16.1445C392.699 15.6693 392.513 15.2526 392.266 14.8945C392.012 14.5365 391.696 14.2533 391.318 14.0449C390.947 13.8301 390.511 13.7227 390.01 13.7227C389.508 13.7227 389.072 13.8301 388.701 14.0449C388.33 14.2533 388.021 14.5365 387.773 14.8945C387.52 15.2526 387.331 15.6693 387.207 16.1445C387.083 16.6133 387.021 17.1048 387.021 17.6191V17.834ZM397.393 17.6289C397.393 16.8411 397.49 16.1185 397.686 15.4609C397.887 14.7969 398.174 14.2272 398.545 13.752C398.91 13.2767 399.352 12.9056 399.873 12.6387C400.394 12.3717 400.977 12.2383 401.621 12.2383C402.253 12.2383 402.803 12.3457 403.271 12.5605C403.747 12.7689 404.157 13.0749 404.502 13.4785V8H406.309V23H404.648L404.57 21.8867C404.219 22.3164 403.799 22.6419 403.311 22.8633C402.822 23.0846 402.253 23.1953 401.602 23.1953C400.964 23.1953 400.384 23.0586 399.863 22.7852C399.349 22.5117 398.91 22.1341 398.545 21.6523C398.18 21.1706 397.897 20.6042 397.695 19.9531C397.493 19.2956 397.393 18.5892 397.393 17.834V17.6289ZM399.199 17.834C399.199 18.3483 399.255 18.8366 399.365 19.2988C399.476 19.7611 399.648 20.168 399.883 20.5195C400.111 20.8711 400.404 21.151 400.762 21.3594C401.12 21.5612 401.549 21.6621 402.051 21.6621C402.656 21.6621 403.158 21.5254 403.555 21.252C403.952 20.9785 404.268 20.6107 404.502 20.1484V15.2461C404.268 14.8164 403.952 14.4648 403.555 14.1914C403.158 13.9115 402.663 13.7715 402.07 13.7715C401.562 13.7715 401.126 13.8757 400.762 14.084C400.404 14.2923 400.111 14.5723 399.883 14.9238C399.648 15.2819 399.476 15.6953 399.365 16.1641C399.255 16.6263 399.199 17.1146 399.199 17.6289V17.834ZM410.596 27.2676C410.426 27.2676 410.228 27.248 410 27.209C409.772 27.1699 409.6 27.1374 409.482 27.1113L409.775 25.6367C409.938 25.6497 410.098 25.6595 410.254 25.666C410.417 25.679 410.544 25.6855 410.635 25.6855C410.882 25.6855 411.107 25.6172 411.309 25.4805C411.517 25.3438 411.702 25.181 411.865 24.9922C412.021 24.8034 412.155 24.6081 412.266 24.4062C412.383 24.2044 412.474 24.0384 412.539 23.9082L413.262 22.502L408.711 12.4336H410.732L413.633 19.25L414.102 20.5293L414.6 19.2891L417.324 12.4336H419.346L413.984 24.6309C413.861 24.9043 413.701 25.194 413.506 25.5C413.317 25.806 413.086 26.0892 412.812 26.3496C412.539 26.61 412.22 26.8281 411.855 27.0039C411.491 27.1797 411.071 27.2676 410.596 27.2676ZM421.797 21.0762V19.2012L428.115 16.8184L428.701 16.6523L428.115 16.4668L421.797 14.123V12.2578L430.42 15.9492V17.375L421.797 21.0762ZM393.965 47.0859L385.684 43.3848V41.959L393.965 38.2676V40.1816L387.988 42.5254L387.471 42.6914L387.988 42.8672L393.965 45.1719V47.0859ZM399.541 40.0059C399.684 39.791 399.844 39.5957 400.02 39.4199C400.195 39.2376 400.381 39.0781 400.576 38.9414C400.889 38.7135 401.23 38.541 401.602 38.4238C401.979 38.3066 402.38 38.2448 402.803 38.2383C403.356 38.2383 403.857 38.3197 404.307 38.4824C404.762 38.6387 405.15 38.8861 405.469 39.2246C405.788 39.5632 406.032 39.9928 406.201 40.5137C406.377 41.028 406.465 41.64 406.465 42.3496V49H404.658V42.3301C404.658 41.9134 404.609 41.5488 404.512 41.2363C404.414 40.9173 404.271 40.6536 404.082 40.4453C403.88 40.2174 403.626 40.0482 403.32 39.9375C403.014 39.8203 402.663 39.765 402.266 39.7715C401.94 39.7715 401.631 39.8171 401.338 39.9082C401.045 39.9993 400.775 40.1296 400.527 40.2988C400.332 40.429 400.15 40.582 399.98 40.7578C399.818 40.9271 399.671 41.1159 399.541 41.3242V49H397.734V34H399.541V40.0059ZM418.467 49H409.15V47.7012L413.809 42.5254C414.225 42.0632 414.574 41.653 414.854 41.2949C415.133 40.9368 415.358 40.6048 415.527 40.2988C415.697 39.9993 415.817 39.7161 415.889 39.4492C415.96 39.1758 415.996 38.8958 415.996 38.6094C415.996 38.2578 415.938 37.929 415.82 37.623C415.71 37.3105 415.547 37.0404 415.332 36.8125C415.111 36.5846 414.844 36.4056 414.531 36.2754C414.225 36.1387 413.877 36.0703 413.486 36.0703C413.011 36.0703 412.598 36.1387 412.246 36.2754C411.901 36.4121 411.615 36.6042 411.387 36.8516C411.152 37.1055 410.977 37.4115 410.859 37.7695C410.749 38.1276 410.693 38.528 410.693 38.9707H408.877C408.877 38.3717 408.981 37.8086 409.189 37.2812C409.398 36.7474 409.701 36.2819 410.098 35.8848C410.488 35.4876 410.967 35.1719 411.533 34.9375C412.106 34.7031 412.757 34.5859 413.486 34.5859C414.157 34.5859 414.759 34.6868 415.293 34.8887C415.833 35.084 416.289 35.3574 416.66 35.709C417.031 36.0605 417.314 36.4772 417.51 36.959C417.712 37.4408 417.812 37.9648 417.812 38.5312C417.812 38.9544 417.741 39.3743 417.598 39.791C417.454 40.2012 417.262 40.6081 417.021 41.0117C416.774 41.4154 416.488 41.8158 416.162 42.2129C415.843 42.6035 415.505 42.9941 415.146 43.3848L411.328 47.5254H418.467V49ZM662.031 47.0762V45.2012L668.35 42.8184L668.936 42.6523L668.35 42.4668L662.031 40.123V38.2578L670.654 41.9492V43.375L662.031 47.0762ZM431.348 62.3242H426.953V75H425.195V62.3242H420.801V60.7812H431.348V62.3242ZM434.053 64.4336H439.453V73.4375H442.9V75H434.053V73.4375H437.646V66.0059H434.053V64.4336ZM437.412 61.6602C437.412 61.5039 437.435 61.3574 437.48 61.2207C437.533 61.084 437.611 60.9668 437.715 60.8691C437.799 60.7845 437.907 60.7194 438.037 60.6738C438.174 60.6217 438.327 60.5957 438.496 60.5957C438.665 60.5957 438.815 60.6217 438.945 60.6738C439.076 60.7194 439.183 60.7845 439.268 60.8691C439.372 60.9603 439.45 61.0742 439.502 61.2109C439.554 61.3477 439.58 61.4974 439.58 61.6602C439.58 61.9531 439.489 62.1973 439.307 62.3926C439.124 62.5879 438.854 62.6855 438.496 62.6855C438.132 62.6855 437.858 62.5879 437.676 62.3926C437.5 62.1973 437.412 61.9531 437.412 61.6602ZM450.059 61.875V64.4336H454.082V65.8301H450.059V71.5723C450.059 71.9824 450.111 72.321 450.215 72.5879C450.319 72.8548 450.462 73.0664 450.645 73.2227C450.827 73.3854 451.035 73.4993 451.27 73.5645C451.51 73.6296 451.764 73.6621 452.031 73.6621C452.227 73.6621 452.428 73.6523 452.637 73.6328C452.845 73.6068 453.05 73.5775 453.252 73.5449C453.447 73.5124 453.63 73.4798 453.799 73.4473C453.975 73.4082 454.118 73.3757 454.229 73.3496L454.482 74.6289C454.333 74.7201 454.15 74.8014 453.936 74.873C453.721 74.9382 453.486 74.9935 453.232 75.0391C452.979 75.0911 452.708 75.1302 452.422 75.1562C452.142 75.1823 451.862 75.1953 451.582 75.1953C451.113 75.1953 450.674 75.1302 450.264 75C449.86 74.8633 449.508 74.6484 449.209 74.3555C448.91 74.069 448.672 73.6979 448.496 73.2422C448.327 72.7799 448.242 72.2233 448.242 71.5723V65.8301H445.469V64.4336H448.242V61.875H450.059ZM464.717 64.2383C465.049 64.2383 465.394 64.2611 465.752 64.3066C466.117 64.3522 466.39 64.4141 466.572 64.4922L466.328 66.2598C465.977 66.1816 465.641 66.1263 465.322 66.0938C465.01 66.0547 464.681 66.0352 464.336 66.0352C463.893 66.0352 463.493 66.0905 463.135 66.2012C462.777 66.3053 462.464 66.4616 462.197 66.6699C461.956 66.8522 461.745 67.0768 461.562 67.3438C461.387 67.6042 461.24 67.8971 461.123 68.2227V75H459.307V64.4336H461.025L461.104 65.8496L461.113 66.1133C461.543 65.5339 462.057 65.0781 462.656 64.7461C463.262 64.4076 463.949 64.2383 464.717 64.2383ZM474.473 75.1953C473.73 75.1953 473.047 75.0684 472.422 74.8145C471.803 74.5605 471.273 74.2057 470.83 73.75C470.387 73.2943 470.042 72.7539 469.795 72.1289C469.548 71.5039 469.424 70.8236 469.424 70.0879V69.6777C469.424 68.8249 469.561 68.0632 469.834 67.3926C470.107 66.7155 470.472 66.1426 470.928 65.6738C471.377 65.2116 471.888 64.8568 472.461 64.6094C473.04 64.362 473.633 64.2383 474.238 64.2383C475 64.2383 475.664 64.3717 476.23 64.6387C476.803 64.8991 477.279 65.2604 477.656 65.7227C478.034 66.1914 478.314 66.7415 478.496 67.373C478.685 68.0046 478.779 68.6882 478.779 69.4238V70.2344H471.23V70.3027C471.276 70.8171 471.377 71.2695 471.533 71.6602C471.696 72.0508 471.917 72.3958 472.197 72.6953C472.484 73.0143 472.829 73.265 473.232 73.4473C473.636 73.6296 474.082 73.7207 474.57 73.7207C475.215 73.7207 475.788 73.5905 476.289 73.3301C476.79 73.0697 477.207 72.7246 477.539 72.2949L478.643 73.1543C478.291 73.6882 477.764 74.1634 477.061 74.5801C476.364 74.9902 475.501 75.1953 474.473 75.1953ZM474.238 65.7227C473.874 65.7227 473.529 65.791 473.203 65.9277C472.878 66.0579 472.585 66.25 472.324 66.5039C472.064 66.7643 471.842 67.0833 471.66 67.4609C471.484 67.832 471.361 68.2617 471.289 68.75H476.973V68.6621C476.973 68.3366 476.911 67.9883 476.787 67.6172C476.663 67.2396 476.491 66.9141 476.27 66.6406C476.048 66.3672 475.768 66.1458 475.43 65.9766C475.098 65.8073 474.701 65.7227 474.238 65.7227ZM393.965 99.0859L385.684 95.3848V93.959L393.965 90.2676V92.1816L387.988 94.5254L387.471 94.6914L387.988 94.8672L393.965 97.1719V99.0859ZM399.541 92.0059C399.684 91.791 399.844 91.5957 400.02 91.4199C400.195 91.2376 400.381 91.0781 400.576 90.9414C400.889 90.7135 401.23 90.541 401.602 90.4238C401.979 90.3066 402.38 90.2448 402.803 90.2383C403.356 90.2383 403.857 90.3197 404.307 90.4824C404.762 90.6387 405.15 90.8861 405.469 91.2246C405.788 91.5632 406.032 91.9928 406.201 92.5137C406.377 93.028 406.465 93.64 406.465 94.3496V101H404.658V94.3301C404.658 93.9134 404.609 93.5488 404.512 93.2363C404.414 92.9173 404.271 92.6536 404.082 92.4453C403.88 92.2174 403.626 92.0482 403.32 91.9375C403.014 91.8203 402.663 91.765 402.266 91.7715C401.94 91.7715 401.631 91.8171 401.338 91.9082C401.045 91.9993 400.775 92.1296 400.527 92.2988C400.332 92.429 400.15 92.582 399.98 92.7578C399.818 92.9271 399.671 93.1159 399.541 93.3242V101H397.734V86H399.541V92.0059ZM418.467 101H409.15V99.7012L413.809 94.5254C414.225 94.0632 414.574 93.653 414.854 93.2949C415.133 92.9368 415.358 92.6048 415.527 92.2988C415.697 91.9993 415.817 91.7161 415.889 91.4492C415.96 91.1758 415.996 90.8958 415.996 90.6094C415.996 90.2578 415.938 89.929 415.82 89.623C415.71 89.3105 415.547 89.0404 415.332 88.8125C415.111 88.5846 414.844 88.4056 414.531 88.2754C414.225 88.1387 413.877 88.0703 413.486 88.0703C413.011 88.0703 412.598 88.1387 412.246 88.2754C411.901 88.4121 411.615 88.6042 411.387 88.8516C411.152 89.1055 410.977 89.4115 410.859 89.7695C410.749 90.1276 410.693 90.528 410.693 90.9707H408.877C408.877 90.3717 408.981 89.8086 409.189 89.2812C409.398 88.7474 409.701 88.2819 410.098 87.8848C410.488 87.4876 410.967 87.1719 411.533 86.9375C412.106 86.7031 412.757 86.5859 413.486 86.5859C414.157 86.5859 414.759 86.6868 415.293 86.8887C415.833 87.084 416.289 87.3574 416.66 87.709C417.031 88.0605 417.314 88.4772 417.51 88.959C417.712 89.4408 417.812 89.9648 417.812 90.5312C417.812 90.9544 417.741 91.3743 417.598 91.791C417.454 92.2012 417.262 92.6081 417.021 93.0117C416.774 93.4154 416.488 93.8158 416.162 94.2129C415.843 94.6035 415.505 94.9941 415.146 95.3848L411.328 99.5254H418.467V101ZM421.797 99.0762V97.2012L428.115 94.8184L428.701 94.6523L428.115 94.4668L421.797 92.123V90.2578L430.42 93.9492V95.375L421.797 99.0762ZM369.941 125.086L361.66 121.385V119.959L369.941 116.268V118.182L363.965 120.525L363.447 120.691L363.965 120.867L369.941 123.172V125.086ZM376.094 128.221H374.473L380.41 112.781H382.021L376.094 128.221ZM394.678 121.834C394.678 122.296 394.642 122.742 394.57 123.172C394.505 123.595 394.408 123.992 394.277 124.363C394.102 124.852 393.87 125.291 393.584 125.682C393.304 126.066 392.965 126.385 392.568 126.639C392.282 126.814 391.966 126.951 391.621 127.049C391.283 127.146 390.915 127.195 390.518 127.195C390.062 127.195 389.645 127.14 389.268 127.029C388.896 126.919 388.561 126.759 388.262 126.551C388.118 126.447 387.982 126.333 387.852 126.209C387.721 126.085 387.598 125.949 387.48 125.799L387.393 127H385.732V112H387.539V117.566C387.689 117.378 387.855 117.208 388.037 117.059C388.219 116.902 388.415 116.769 388.623 116.658C388.883 116.521 389.17 116.417 389.482 116.346C389.795 116.274 390.133 116.238 390.498 116.238C390.954 116.238 391.374 116.3 391.758 116.424C392.142 116.548 392.49 116.72 392.803 116.941C393.083 117.15 393.333 117.404 393.555 117.703C393.776 117.996 393.971 118.325 394.141 118.689C394.316 119.1 394.45 119.555 394.541 120.057C394.632 120.551 394.678 121.076 394.678 121.629V121.834ZM392.871 121.629C392.871 121.297 392.848 120.975 392.803 120.662C392.764 120.343 392.702 120.044 392.617 119.764C392.5 119.419 392.347 119.103 392.158 118.816C391.969 118.53 391.738 118.305 391.465 118.143C391.276 118.025 391.064 117.934 390.83 117.869C390.596 117.804 390.335 117.771 390.049 117.771C389.736 117.771 389.45 117.814 389.189 117.898C388.929 117.977 388.698 118.087 388.496 118.23C388.288 118.38 388.102 118.556 387.939 118.758C387.783 118.953 387.65 119.168 387.539 119.402V124.021C387.656 124.256 387.793 124.474 387.949 124.676C388.112 124.871 388.298 125.044 388.506 125.193C388.714 125.343 388.949 125.46 389.209 125.545C389.469 125.623 389.756 125.662 390.068 125.662C390.368 125.662 390.641 125.626 390.889 125.555C391.136 125.477 391.357 125.366 391.553 125.223C391.813 125.04 392.031 124.809 392.207 124.529C392.383 124.249 392.523 123.937 392.627 123.592C392.712 123.331 392.773 123.051 392.812 122.752C392.852 122.452 392.871 122.146 392.871 121.834V121.629ZM397.227 121.619C397.227 120.857 397.337 120.151 397.559 119.5C397.78 118.842 398.099 118.273 398.516 117.791C398.926 117.309 399.427 116.932 400.02 116.658C400.612 116.378 401.279 116.238 402.021 116.238C402.77 116.238 403.441 116.378 404.033 116.658C404.632 116.932 405.14 117.309 405.557 117.791C405.967 118.273 406.283 118.842 406.504 119.5C406.725 120.151 406.836 120.857 406.836 121.619V121.834C406.836 122.596 406.725 123.302 406.504 123.953C406.283 124.604 405.967 125.171 405.557 125.652C405.14 126.134 404.635 126.512 404.043 126.785C403.451 127.059 402.783 127.195 402.041 127.195C401.292 127.195 400.618 127.059 400.02 126.785C399.427 126.512 398.926 126.134 398.516 125.652C398.099 125.171 397.78 124.604 397.559 123.953C397.337 123.302 397.227 122.596 397.227 121.834V121.619ZM399.033 121.834C399.033 122.355 399.095 122.853 399.219 123.328C399.342 123.797 399.531 124.21 399.785 124.568C400.033 124.926 400.345 125.21 400.723 125.418C401.1 125.626 401.54 125.73 402.041 125.73C402.536 125.73 402.969 125.626 403.34 125.418C403.717 125.21 404.033 124.926 404.287 124.568C404.535 124.21 404.72 123.797 404.844 123.328C404.967 122.853 405.029 122.355 405.029 121.834V121.619C405.029 121.105 404.964 120.613 404.834 120.145C404.71 119.669 404.525 119.253 404.277 118.895C404.023 118.536 403.708 118.253 403.33 118.045C402.959 117.83 402.523 117.723 402.021 117.723C401.52 117.723 401.084 117.83 400.713 118.045C400.342 118.253 400.033 118.536 399.785 118.895C399.531 119.253 399.342 119.669 399.219 120.145C399.095 120.613 399.033 121.105 399.033 121.619V121.834ZM409.404 121.629C409.404 120.841 409.502 120.118 409.697 119.461C409.899 118.797 410.186 118.227 410.557 117.752C410.921 117.277 411.364 116.906 411.885 116.639C412.406 116.372 412.988 116.238 413.633 116.238C414.264 116.238 414.814 116.346 415.283 116.561C415.758 116.769 416.169 117.075 416.514 117.479V112H418.32V127H416.66L416.582 125.887C416.23 126.316 415.811 126.642 415.322 126.863C414.834 127.085 414.264 127.195 413.613 127.195C412.975 127.195 412.396 127.059 411.875 126.785C411.361 126.512 410.921 126.134 410.557 125.652C410.192 125.171 409.909 124.604 409.707 123.953C409.505 123.296 409.404 122.589 409.404 121.834V121.629ZM411.211 121.834C411.211 122.348 411.266 122.837 411.377 123.299C411.488 123.761 411.66 124.168 411.895 124.52C412.122 124.871 412.415 125.151 412.773 125.359C413.132 125.561 413.561 125.662 414.062 125.662C414.668 125.662 415.169 125.525 415.566 125.252C415.964 124.979 416.279 124.611 416.514 124.148V119.246C416.279 118.816 415.964 118.465 415.566 118.191C415.169 117.911 414.674 117.771 414.082 117.771C413.574 117.771 413.138 117.876 412.773 118.084C412.415 118.292 412.122 118.572 411.895 118.924C411.66 119.282 411.488 119.695 411.377 120.164C411.266 120.626 411.211 121.115 411.211 121.629V121.834ZM422.607 131.268C422.438 131.268 422.24 131.248 422.012 131.209C421.784 131.17 421.611 131.137 421.494 131.111L421.787 129.637C421.95 129.65 422.109 129.66 422.266 129.666C422.428 129.679 422.555 129.686 422.646 129.686C422.894 129.686 423.118 129.617 423.32 129.48C423.529 129.344 423.714 129.181 423.877 128.992C424.033 128.803 424.167 128.608 424.277 128.406C424.395 128.204 424.486 128.038 424.551 127.908L425.273 126.502L420.723 116.434H422.744L425.645 123.25L426.113 124.529L426.611 123.289L429.336 116.434H431.357L425.996 128.631C425.872 128.904 425.713 129.194 425.518 129.5C425.329 129.806 425.098 130.089 424.824 130.35C424.551 130.61 424.232 130.828 423.867 131.004C423.503 131.18 423.083 131.268 422.607 131.268ZM433.809 125.076V123.201L440.127 120.818L440.713 120.652L440.127 120.467L433.809 118.123V116.258L442.432 119.949V121.375L433.809 125.076Z" fill="black"/>
<path d="M438.271 47.7305C438.597 47.7305 438.913 47.6784 439.219 47.5742C439.531 47.4701 439.808 47.3236 440.049 47.1348C440.29 46.9525 440.482 46.7376 440.625 46.4902C440.775 46.2363 440.853 45.9629 440.859 45.6699H442.568C442.562 46.1387 442.438 46.5879 442.197 47.0176C441.963 47.4408 441.647 47.8118 441.25 48.1309C440.853 48.4564 440.397 48.7168 439.883 48.9121C439.368 49.1009 438.831 49.1953 438.271 49.1953C437.471 49.1953 436.771 49.0521 436.172 48.7656C435.573 48.4792 435.075 48.0918 434.678 47.6035C434.274 47.1217 433.971 46.5651 433.77 45.9336C433.568 45.2956 433.467 44.625 433.467 43.9219V43.5117C433.467 42.8151 433.568 42.1478 433.77 41.5098C433.971 40.8717 434.274 40.3086 434.678 39.8203C435.075 39.3385 435.573 38.9544 436.172 38.668C436.771 38.3815 437.471 38.2383 438.271 38.2383C438.896 38.2383 439.469 38.3392 439.99 38.541C440.518 38.7363 440.973 39.0033 441.357 39.3418C441.735 39.6868 442.031 40.0938 442.246 40.5625C442.461 41.0312 442.568 41.5326 442.568 42.0664H440.859C440.853 41.7474 440.781 41.4479 440.645 41.168C440.514 40.8815 440.335 40.6309 440.107 40.416C439.88 40.2012 439.606 40.0319 439.287 39.9082C438.975 39.7845 438.636 39.7227 438.271 39.7227C437.712 39.7227 437.24 39.8366 436.855 40.0645C436.478 40.2858 436.172 40.5755 435.938 40.9336C435.703 41.2982 435.534 41.7051 435.43 42.1543C435.332 42.6035 435.283 43.056 435.283 43.5117V43.9219C435.283 44.3841 435.332 44.8431 435.43 45.2988C435.534 45.748 435.703 46.1517 435.938 46.5098C436.165 46.8743 436.468 47.1706 436.846 47.3984C437.23 47.6198 437.705 47.7305 438.271 47.7305ZM446.064 34H451.465V47.4375H454.912V49H446.064V47.4375H449.658V35.5723H446.064V34ZM464.736 49C464.665 48.8633 464.606 48.694 464.561 48.4922C464.521 48.2839 464.492 48.069 464.473 47.8477C464.29 48.0299 464.085 48.2025 463.857 48.3652C463.636 48.528 463.392 48.6712 463.125 48.7949C462.852 48.9186 462.562 49.0163 462.256 49.0879C461.95 49.1595 461.624 49.1953 461.279 49.1953C460.719 49.1953 460.212 49.1139 459.756 48.9512C459.307 48.7884 458.926 48.5671 458.613 48.2871C458.294 48.0137 458.047 47.6882 457.871 47.3105C457.702 46.9264 457.617 46.513 457.617 46.0703C457.617 45.4909 457.731 44.9831 457.959 44.5469C458.193 44.1107 458.522 43.7461 458.945 43.4531C459.368 43.1667 459.876 42.9518 460.469 42.8086C461.068 42.6654 461.735 42.5938 462.471 42.5938H464.443V41.7637C464.443 41.4447 464.385 41.1582 464.268 40.9043C464.15 40.6504 463.984 40.4323 463.77 40.25C463.555 40.0742 463.291 39.9375 462.979 39.8398C462.673 39.7422 462.327 39.6934 461.943 39.6934C461.585 39.6934 461.263 39.7389 460.977 39.8301C460.697 39.9212 460.459 40.0417 460.264 40.1914C460.068 40.3411 459.915 40.5202 459.805 40.7285C459.701 40.9303 459.648 41.1419 459.648 41.3633H457.832C457.839 40.9792 457.936 40.6016 458.125 40.2305C458.32 39.8594 458.6 39.5241 458.965 39.2246C459.323 38.9316 459.759 38.694 460.273 38.5117C460.794 38.3294 461.383 38.2383 462.041 38.2383C462.64 38.2383 463.197 38.3132 463.711 38.4629C464.225 38.6061 464.671 38.8242 465.049 39.1172C465.42 39.4167 465.713 39.7878 465.928 40.2305C466.143 40.6732 466.25 41.1908 466.25 41.7832V46.6953C466.25 47.0469 466.283 47.4212 466.348 47.8184C466.413 48.209 466.504 48.5508 466.621 48.8438V49H464.736ZM461.543 47.623C461.895 47.623 462.223 47.5775 462.529 47.4863C462.835 47.3952 463.115 47.2747 463.369 47.125C463.617 46.9753 463.831 46.806 464.014 46.6172C464.196 46.4219 464.339 46.2201 464.443 46.0117V43.873H462.764C462.139 43.873 461.592 43.9284 461.123 44.0391C460.661 44.1432 460.293 44.306 460.02 44.5273C459.824 44.6836 459.674 44.8691 459.57 45.084C459.473 45.2988 459.424 45.543 459.424 45.8164C459.424 46.0768 459.466 46.3177 459.551 46.5391C459.642 46.7604 459.775 46.9492 459.951 47.1055C460.127 47.2682 460.348 47.3952 460.615 47.4863C460.882 47.5775 461.191 47.623 461.543 47.623ZM476.826 46.1973C476.826 45.9824 476.784 45.7904 476.699 45.6211C476.615 45.4453 476.471 45.2858 476.27 45.1426C476.068 44.9993 475.801 44.8691 475.469 44.752C475.137 44.6283 474.723 44.5176 474.229 44.4199C473.623 44.2962 473.07 44.1465 472.568 43.9707C472.074 43.7949 471.65 43.5833 471.299 43.3359C470.941 43.0951 470.664 42.8118 470.469 42.4863C470.273 42.1543 470.176 41.7702 470.176 41.334C470.176 40.9043 470.277 40.5039 470.479 40.1328C470.68 39.7552 470.964 39.4264 471.328 39.1465C471.693 38.8665 472.126 38.6452 472.627 38.4824C473.135 38.3197 473.691 38.2383 474.297 38.2383C474.948 38.2383 475.534 38.3229 476.055 38.4922C476.576 38.6615 477.018 38.8958 477.383 39.1953C477.747 39.4948 478.027 39.8464 478.223 40.25C478.424 40.6471 478.525 41.0768 478.525 41.5391H476.719C476.719 41.3112 476.66 41.0898 476.543 40.875C476.426 40.6536 476.263 40.4583 476.055 40.2891C475.846 40.1198 475.592 39.9831 475.293 39.8789C475 39.7747 474.668 39.7227 474.297 39.7227C473.913 39.7227 473.574 39.765 473.281 39.8496C472.995 39.9342 472.757 40.0482 472.568 40.1914C472.373 40.3346 472.227 40.5007 472.129 40.6895C472.031 40.8783 471.982 41.0736 471.982 41.2754C471.982 41.4837 472.021 41.6693 472.1 41.832C472.178 41.9948 472.314 42.1413 472.51 42.2715C472.699 42.4017 472.952 42.5189 473.271 42.623C473.597 42.7272 474.007 42.8281 474.502 42.9258C475.153 43.0625 475.736 43.222 476.25 43.4043C476.764 43.5801 477.197 43.7917 477.549 44.0391C477.9 44.293 478.167 44.5859 478.35 44.918C478.538 45.25 478.633 45.6341 478.633 46.0703C478.633 46.5391 478.525 46.9655 478.311 47.3496C478.102 47.7337 477.809 48.0625 477.432 48.3359C477.054 48.6094 476.602 48.821 476.074 48.9707C475.547 49.1204 474.971 49.1953 474.346 49.1953C473.63 49.1953 472.992 49.1009 472.432 48.9121C471.872 48.7168 471.4 48.4596 471.016 48.1406C470.625 47.8281 470.326 47.4635 470.117 47.0469C469.915 46.6302 469.814 46.1973 469.814 45.748H471.621C471.647 46.1191 471.745 46.4316 471.914 46.6855C472.09 46.9395 472.308 47.1445 472.568 47.3008C472.822 47.457 473.105 47.5677 473.418 47.6328C473.73 47.6979 474.04 47.7305 474.346 47.7305C474.827 47.7305 475.247 47.6751 475.605 47.5645C475.964 47.4473 476.243 47.2878 476.445 47.0859C476.569 46.9622 476.663 46.8255 476.729 46.6758C476.794 46.526 476.826 46.3665 476.826 46.1973ZM488.838 46.1973C488.838 45.9824 488.796 45.7904 488.711 45.6211C488.626 45.4453 488.483 45.2858 488.281 45.1426C488.079 44.9993 487.812 44.8691 487.48 44.752C487.148 44.6283 486.735 44.5176 486.24 44.4199C485.635 44.2962 485.081 44.1465 484.58 43.9707C484.085 43.7949 483.662 43.5833 483.311 43.3359C482.952 43.0951 482.676 42.8118 482.48 42.4863C482.285 42.1543 482.188 41.7702 482.188 41.334C482.188 40.9043 482.288 40.5039 482.49 40.1328C482.692 39.7552 482.975 39.4264 483.34 39.1465C483.704 38.8665 484.137 38.6452 484.639 38.4824C485.146 38.3197 485.703 38.2383 486.309 38.2383C486.96 38.2383 487.546 38.3229 488.066 38.4922C488.587 38.6615 489.03 38.8958 489.395 39.1953C489.759 39.4948 490.039 39.8464 490.234 40.25C490.436 40.6471 490.537 41.0768 490.537 41.5391H488.73C488.73 41.3112 488.672 41.0898 488.555 40.875C488.438 40.6536 488.275 40.4583 488.066 40.2891C487.858 40.1198 487.604 39.9831 487.305 39.8789C487.012 39.7747 486.68 39.7227 486.309 39.7227C485.924 39.7227 485.586 39.765 485.293 39.8496C485.007 39.9342 484.769 40.0482 484.58 40.1914C484.385 40.3346 484.238 40.5007 484.141 40.6895C484.043 40.8783 483.994 41.0736 483.994 41.2754C483.994 41.4837 484.033 41.6693 484.111 41.832C484.189 41.9948 484.326 42.1413 484.521 42.2715C484.71 42.4017 484.964 42.5189 485.283 42.623C485.609 42.7272 486.019 42.8281 486.514 42.9258C487.165 43.0625 487.747 43.222 488.262 43.4043C488.776 43.5801 489.209 43.7917 489.561 44.0391C489.912 44.293 490.179 44.5859 490.361 44.918C490.55 45.25 490.645 45.6341 490.645 46.0703C490.645 46.5391 490.537 46.9655 490.322 47.3496C490.114 47.7337 489.821 48.0625 489.443 48.3359C489.066 48.6094 488.613 48.821 488.086 48.9707C487.559 49.1204 486.982 49.1953 486.357 49.1953C485.641 49.1953 485.003 49.1009 484.443 48.9121C483.883 48.7168 483.411 48.4596 483.027 48.1406C482.637 47.8281 482.337 47.4635 482.129 47.0469C481.927 46.6302 481.826 46.1973 481.826 45.748H483.633C483.659 46.1191 483.757 46.4316 483.926 46.6855C484.102 46.9395 484.32 47.1445 484.58 47.3008C484.834 47.457 485.117 47.5677 485.43 47.6328C485.742 47.6979 486.051 47.7305 486.357 47.7305C486.839 47.7305 487.259 47.6751 487.617 47.5645C487.975 47.4473 488.255 47.2878 488.457 47.0859C488.581 46.9622 488.675 46.8255 488.74 46.6758C488.805 46.526 488.838 46.3665 488.838 46.1973ZM502.539 41.3828H493.818V39.8105H502.539V41.3828ZM502.539 45.4355H493.818V43.873H502.539V45.4355ZM509.766 35.2207C509.766 35.5267 509.727 35.849 509.648 36.1875C509.577 36.526 509.469 36.8581 509.326 37.1836C509.176 37.5156 508.997 37.8314 508.789 38.1309C508.581 38.4303 508.34 38.6973 508.066 38.9316L507.08 38.2285C507.386 37.7663 507.614 37.2943 507.764 36.8125C507.92 36.3307 507.998 35.8099 507.998 35.25V33.7852H509.766V35.2207ZM513.008 35.2207C513.008 35.5267 512.969 35.849 512.891 36.1875C512.819 36.526 512.712 36.8581 512.568 37.1836C512.419 37.5156 512.24 37.8314 512.031 38.1309C511.823 38.4303 511.582 38.6973 511.309 38.9316L510.322 38.2285C510.628 37.7663 510.856 37.2943 511.006 36.8125C511.162 36.3307 511.24 35.8099 511.24 35.25V33.7852H513.008V35.2207ZM522.129 35.875V38.4336H526.152V39.8301H522.129V45.5723C522.129 45.9824 522.181 46.321 522.285 46.5879C522.389 46.8548 522.533 47.0664 522.715 47.2227C522.897 47.3854 523.105 47.4993 523.34 47.5645C523.581 47.6296 523.835 47.6621 524.102 47.6621C524.297 47.6621 524.499 47.6523 524.707 47.6328C524.915 47.6068 525.12 47.5775 525.322 47.5449C525.518 47.5124 525.7 47.4798 525.869 47.4473C526.045 47.4082 526.188 47.3757 526.299 47.3496L526.553 48.6289C526.403 48.7201 526.221 48.8014 526.006 48.873C525.791 48.9382 525.557 48.9935 525.303 49.0391C525.049 49.0911 524.779 49.1302 524.492 49.1562C524.212 49.1823 523.932 49.1953 523.652 49.1953C523.184 49.1953 522.744 49.1302 522.334 49C521.93 48.8633 521.579 48.6484 521.279 48.3555C520.98 48.069 520.742 47.6979 520.566 47.2422C520.397 46.7799 520.312 46.2233 520.312 45.5723V39.8301H517.539V38.4336H520.312V35.875H522.129ZM530.146 38.4336H535.547V47.4375H538.994V49H530.146V47.4375H533.74V40.0059H530.146V38.4336ZM533.506 35.6602C533.506 35.5039 533.529 35.3574 533.574 35.2207C533.626 35.084 533.704 34.9668 533.809 34.8691C533.893 34.7845 534.001 34.7194 534.131 34.6738C534.268 34.6217 534.421 34.5957 534.59 34.5957C534.759 34.5957 534.909 34.6217 535.039 34.6738C535.169 34.7194 535.277 34.7845 535.361 34.8691C535.465 34.9603 535.544 35.0742 535.596 35.2109C535.648 35.3477 535.674 35.4974 535.674 35.6602C535.674 35.9531 535.583 36.1973 535.4 36.3926C535.218 36.5879 534.948 36.6855 534.59 36.6855C534.225 36.6855 533.952 36.5879 533.77 36.3926C533.594 36.1973 533.506 35.9531 533.506 35.6602ZM546.152 35.875V38.4336H550.176V39.8301H546.152V45.5723C546.152 45.9824 546.204 46.321 546.309 46.5879C546.413 46.8548 546.556 47.0664 546.738 47.2227C546.921 47.3854 547.129 47.4993 547.363 47.5645C547.604 47.6296 547.858 47.6621 548.125 47.6621C548.32 47.6621 548.522 47.6523 548.73 47.6328C548.939 47.6068 549.144 47.5775 549.346 47.5449C549.541 47.5124 549.723 47.4798 549.893 47.4473C550.068 47.4082 550.212 47.3757 550.322 47.3496L550.576 48.6289C550.426 48.7201 550.244 48.8014 550.029 48.873C549.814 48.9382 549.58 48.9935 549.326 49.0391C549.072 49.0911 548.802 49.1302 548.516 49.1562C548.236 49.1823 547.956 49.1953 547.676 49.1953C547.207 49.1953 546.768 49.1302 546.357 49C545.954 48.8633 545.602 48.6484 545.303 48.3555C545.003 48.069 544.766 47.6979 544.59 47.2422C544.421 46.7799 544.336 46.2233 544.336 45.5723V39.8301H541.562V38.4336H544.336V35.875H546.152ZM560.811 38.2383C561.143 38.2383 561.488 38.2611 561.846 38.3066C562.21 38.3522 562.484 38.4141 562.666 38.4922L562.422 40.2598C562.07 40.1816 561.735 40.1263 561.416 40.0938C561.104 40.0547 560.775 40.0352 560.43 40.0352C559.987 40.0352 559.587 40.0905 559.229 40.2012C558.87 40.3053 558.558 40.4616 558.291 40.6699C558.05 40.8522 557.839 41.0768 557.656 41.3438C557.48 41.6042 557.334 41.8971 557.217 42.2227V49H555.4V38.4336H557.119L557.197 39.8496L557.207 40.1133C557.637 39.5339 558.151 39.0781 558.75 38.7461C559.355 38.4076 560.042 38.2383 560.811 38.2383ZM570.566 49.1953C569.824 49.1953 569.141 49.0684 568.516 48.8145C567.897 48.5605 567.367 48.2057 566.924 47.75C566.481 47.2943 566.136 46.7539 565.889 46.1289C565.641 45.5039 565.518 44.8236 565.518 44.0879V43.6777C565.518 42.8249 565.654 42.0632 565.928 41.3926C566.201 40.7155 566.566 40.1426 567.021 39.6738C567.471 39.2116 567.982 38.8568 568.555 38.6094C569.134 38.362 569.727 38.2383 570.332 38.2383C571.094 38.2383 571.758 38.3717 572.324 38.6387C572.897 38.8991 573.372 39.2604 573.75 39.7227C574.128 40.1914 574.408 40.7415 574.59 41.373C574.779 42.0046 574.873 42.6882 574.873 43.4238V44.2344H567.324V44.3027C567.37 44.8171 567.471 45.2695 567.627 45.6602C567.79 46.0508 568.011 46.3958 568.291 46.6953C568.577 47.0143 568.923 47.265 569.326 47.4473C569.73 47.6296 570.176 47.7207 570.664 47.7207C571.309 47.7207 571.882 47.5905 572.383 47.3301C572.884 47.0697 573.301 46.7246 573.633 46.2949L574.736 47.1543C574.385 47.6882 573.857 48.1634 573.154 48.5801C572.458 48.9902 571.595 49.1953 570.566 49.1953ZM570.332 39.7227C569.967 39.7227 569.622 39.791 569.297 39.9277C568.971 40.0579 568.678 40.25 568.418 40.5039C568.158 40.7643 567.936 41.0833 567.754 41.4609C567.578 41.832 567.454 42.2617 567.383 42.75H573.066V42.6621C573.066 42.3366 573.005 41.9883 572.881 41.6172C572.757 41.2396 572.585 40.9141 572.363 40.6406C572.142 40.3672 571.862 40.1458 571.523 39.9766C571.191 39.8073 570.794 39.7227 570.332 39.7227ZM585.811 43.5215H578.34V42.0371H585.811V43.5215ZM591.143 38.4336H596.475V49.0684C596.475 49.7454 596.38 50.3444 596.191 50.8652C596.009 51.3861 595.742 51.8223 595.391 52.1738C595.033 52.5319 594.596 52.8021 594.082 52.9844C593.574 53.1732 592.995 53.2676 592.344 53.2676C592.142 53.2676 591.947 53.2643 591.758 53.2578C591.569 53.2513 591.383 53.2415 591.201 53.2285C591.051 53.2155 590.902 53.196 590.752 53.1699C590.602 53.1504 590.446 53.1276 590.283 53.1016L590.41 51.6172C590.521 51.6367 590.661 51.653 590.83 51.666C590.999 51.6855 591.172 51.6986 591.348 51.7051C591.517 51.7181 591.68 51.7246 591.836 51.7246C591.999 51.7311 592.126 51.7344 592.217 51.7344C592.555 51.7344 592.874 51.6888 593.174 51.5977C593.473 51.513 593.734 51.3665 593.955 51.1582C594.176 50.9499 594.349 50.6732 594.473 50.3281C594.603 49.9896 594.668 49.5697 594.668 49.0684V40.0059H591.143V38.4336ZM594.414 35.6504C594.414 35.3574 594.502 35.11 594.678 34.9082C594.854 34.6999 595.124 34.5957 595.488 34.5957C595.853 34.5957 596.126 34.6999 596.309 34.9082C596.491 35.11 596.582 35.3574 596.582 35.6504C596.582 35.9434 596.491 36.1908 596.309 36.3926C596.126 36.5879 595.853 36.6855 595.488 36.6855C595.124 36.6855 594.854 36.5879 594.678 36.3926C594.502 36.1908 594.414 35.9434 594.414 35.6504ZM608.877 49C608.805 48.8633 608.747 48.694 608.701 48.4922C608.662 48.2839 608.633 48.069 608.613 47.8477C608.431 48.0299 608.226 48.2025 607.998 48.3652C607.777 48.528 607.533 48.6712 607.266 48.7949C606.992 48.9186 606.702 49.0163 606.396 49.0879C606.09 49.1595 605.765 49.1953 605.42 49.1953C604.86 49.1953 604.352 49.1139 603.896 48.9512C603.447 48.7884 603.066 48.5671 602.754 48.2871C602.435 48.0137 602.188 47.6882 602.012 47.3105C601.842 46.9264 601.758 46.513 601.758 46.0703C601.758 45.4909 601.872 44.9831 602.1 44.5469C602.334 44.1107 602.663 43.7461 603.086 43.4531C603.509 43.1667 604.017 42.9518 604.609 42.8086C605.208 42.6654 605.876 42.5938 606.611 42.5938H608.584V41.7637C608.584 41.4447 608.525 41.1582 608.408 40.9043C608.291 40.6504 608.125 40.4323 607.91 40.25C607.695 40.0742 607.432 39.9375 607.119 39.8398C606.813 39.7422 606.468 39.6934 606.084 39.6934C605.726 39.6934 605.404 39.7389 605.117 39.8301C604.837 39.9212 604.6 40.0417 604.404 40.1914C604.209 40.3411 604.056 40.5202 603.945 40.7285C603.841 40.9303 603.789 41.1419 603.789 41.3633H601.973C601.979 40.9792 602.077 40.6016 602.266 40.2305C602.461 39.8594 602.741 39.5241 603.105 39.2246C603.464 38.9316 603.9 38.694 604.414 38.5117C604.935 38.3294 605.524 38.2383 606.182 38.2383C606.781 38.2383 607.337 38.3132 607.852 38.4629C608.366 38.6061 608.812 38.8242 609.189 39.1172C609.561 39.4167 609.854 39.7878 610.068 40.2305C610.283 40.6732 610.391 41.1908 610.391 41.7832V46.6953C610.391 47.0469 610.423 47.4212 610.488 47.8184C610.553 48.209 610.645 48.5508 610.762 48.8438V49H608.877ZM605.684 47.623C606.035 47.623 606.364 47.5775 606.67 47.4863C606.976 47.3952 607.256 47.2747 607.51 47.125C607.757 46.9753 607.972 46.806 608.154 46.6172C608.337 46.4219 608.48 46.2201 608.584 46.0117V43.873H606.904C606.279 43.873 605.732 43.9284 605.264 44.0391C604.801 44.1432 604.434 44.306 604.16 44.5273C603.965 44.6836 603.815 44.8691 603.711 45.084C603.613 45.2988 603.564 45.543 603.564 45.8164C603.564 46.0768 603.607 46.3177 603.691 46.5391C603.783 46.7604 603.916 46.9492 604.092 47.1055C604.268 47.2682 604.489 47.3952 604.756 47.4863C605.023 47.5775 605.332 47.623 605.684 47.623ZM620.908 49L620.801 47.5449C620.449 48.0658 620.01 48.4727 619.482 48.7656C618.955 49.0521 618.346 49.1953 617.656 49.1953C617.103 49.1953 616.602 49.1107 616.152 48.9414C615.703 48.7656 615.319 48.4954 615 48.1309C614.681 47.7663 614.434 47.304 614.258 46.7441C614.089 46.1777 614.004 45.5007 614.004 44.7129V38.4336H615.811V44.7324C615.811 45.3053 615.856 45.7806 615.947 46.1582C616.038 46.5358 616.175 46.8353 616.357 47.0566C616.54 47.2845 616.761 47.444 617.021 47.5352C617.288 47.6263 617.594 47.6719 617.939 47.6719C618.343 47.6719 618.704 47.6263 619.023 47.5352C619.342 47.4375 619.619 47.304 619.854 47.1348C620.049 46.998 620.218 46.8353 620.361 46.6465C620.511 46.4512 620.635 46.2396 620.732 46.0117V38.4336H622.549V49H620.908ZM625.957 49V38.4336H627.578L627.705 39.9961C627.861 39.7747 628.031 39.5729 628.213 39.3906C628.402 39.2018 628.6 39.0391 628.809 38.9023C629.121 38.694 629.46 38.5345 629.824 38.4238C630.195 38.3066 630.586 38.2448 630.996 38.2383C631.549 38.2383 632.051 38.3164 632.5 38.4727C632.956 38.6289 633.343 38.873 633.662 39.2051C633.981 39.5371 634.225 39.9603 634.395 40.4746C634.57 40.9824 634.658 41.5879 634.658 42.291V49H632.852V42.3301C632.852 41.8613 632.799 41.4642 632.695 41.1387C632.591 40.8132 632.438 40.5495 632.236 40.3477C632.028 40.1458 631.774 39.9993 631.475 39.9082C631.182 39.8171 630.843 39.7715 630.459 39.7715C630.127 39.7715 629.818 39.8203 629.531 39.918C629.245 40.0091 628.981 40.1361 628.74 40.2988C628.545 40.4421 628.363 40.6081 628.193 40.7969C628.031 40.9857 627.887 41.194 627.764 41.4219V49H625.957ZM642.637 49.1953C641.895 49.1953 641.211 49.0684 640.586 48.8145C639.967 48.5605 639.437 48.2057 638.994 47.75C638.551 47.2943 638.206 46.7539 637.959 46.1289C637.712 45.5039 637.588 44.8236 637.588 44.0879V43.6777C637.588 42.8249 637.725 42.0632 637.998 41.3926C638.271 40.7155 638.636 40.1426 639.092 39.6738C639.541 39.2116 640.052 38.8568 640.625 38.6094C641.204 38.362 641.797 38.2383 642.402 38.2383C643.164 38.2383 643.828 38.3717 644.395 38.6387C644.967 38.8991 645.443 39.2604 645.82 39.7227C646.198 40.1914 646.478 40.7415 646.66 41.373C646.849 42.0046 646.943 42.6882 646.943 43.4238V44.2344H639.395V44.3027C639.44 44.8171 639.541 45.2695 639.697 45.6602C639.86 46.0508 640.081 46.3958 640.361 46.6953C640.648 47.0143 640.993 47.265 641.396 47.4473C641.8 47.6296 642.246 47.7207 642.734 47.7207C643.379 47.7207 643.952 47.5905 644.453 47.3301C644.954 47.0697 645.371 46.7246 645.703 46.2949L646.807 47.1543C646.455 47.6882 645.928 48.1634 645.225 48.5801C644.528 48.9902 643.665 49.1953 642.637 49.1953ZM642.402 39.7227C642.038 39.7227 641.693 39.791 641.367 39.9277C641.042 40.0579 640.749 40.25 640.488 40.5039C640.228 40.7643 640.007 41.0833 639.824 41.4609C639.648 41.832 639.525 42.2617 639.453 42.75H645.137V42.6621C645.137 42.3366 645.075 41.9883 644.951 41.6172C644.827 41.2396 644.655 40.9141 644.434 40.6406C644.212 40.3672 643.932 40.1458 643.594 39.9766C643.262 39.8073 642.865 39.7227 642.402 39.7227ZM653.906 35.2207C653.906 35.5267 653.867 35.849 653.789 36.1875C653.717 36.526 653.61 36.8581 653.467 37.1836C653.317 37.5156 653.138 37.8314 652.93 38.1309C652.721 38.4303 652.48 38.6973 652.207 38.9316L651.221 38.2285C651.527 37.7663 651.755 37.2943 651.904 36.8125C652.061 36.3307 652.139 35.8099 652.139 35.25V33.7852H653.906V35.2207ZM657.148 35.2207C657.148 35.5267 657.109 35.849 657.031 36.1875C656.96 36.526 656.852 36.8581 656.709 37.1836C656.559 37.5156 656.38 37.8314 656.172 38.1309C655.964 38.4303 655.723 38.6973 655.449 38.9316L654.463 38.2285C654.769 37.7663 654.997 37.2943 655.146 36.8125C655.303 36.3307 655.381 35.8099 655.381 35.25V33.7852H657.148V35.2207Z" fill="#27D72E"/>
<line x1="437" y1="31.5" x2="647" y2="31.5" stroke="#673AB7" stroke-dasharray="2 2"/>
<path d="M507.877 29V20.2727H508.883V23.4943H508.968C509.042 23.3807 509.144 23.2358 509.275 23.0597C509.408 22.8807 509.599 22.7216 509.846 22.5824C510.096 22.4403 510.434 22.3693 510.86 22.3693C511.411 22.3693 511.897 22.5071 512.317 22.7827C512.738 23.0582 513.066 23.4489 513.302 23.9545C513.538 24.4602 513.656 25.0568 513.656 25.7443C513.656 26.4375 513.538 27.0384 513.302 27.5469C513.066 28.0526 512.739 28.4446 512.322 28.723C511.904 28.9986 511.423 29.1364 510.877 29.1364C510.457 29.1364 510.12 29.0668 509.867 28.9276C509.614 28.7855 509.42 28.625 509.283 28.446C509.147 28.2642 509.042 28.1136 508.968 27.9943H508.849V29H507.877ZM508.866 25.7273C508.866 26.2216 508.938 26.6577 509.083 27.0355C509.228 27.4105 509.44 27.7045 509.718 27.9176C509.996 28.1278 510.337 28.233 510.741 28.233C511.161 28.233 511.512 28.1222 511.793 27.9006C512.077 27.6761 512.29 27.375 512.433 26.9972C512.577 26.6165 512.65 26.1932 512.65 25.7273C512.65 25.267 512.579 24.8523 512.437 24.483C512.298 24.1108 512.086 23.8168 511.802 23.6009C511.521 23.3821 511.167 23.2727 510.741 23.2727C510.332 23.2727 509.988 23.3764 509.71 23.5838C509.431 23.7884 509.221 24.0753 509.079 24.4446C508.937 24.8111 508.866 25.2386 508.866 25.7273ZM517.12 29.1534C516.705 29.1534 516.329 29.0753 515.991 28.919C515.653 28.7599 515.384 28.5312 515.185 28.233C514.987 27.9318 514.887 27.5682 514.887 27.142C514.887 26.767 514.961 26.4631 515.109 26.2301C515.256 25.9943 515.454 25.8097 515.701 25.6761C515.948 25.5426 516.221 25.4432 516.519 25.3778C516.82 25.3097 517.123 25.2557 517.427 25.2159C517.825 25.1648 518.147 25.1264 518.394 25.1009C518.644 25.0724 518.826 25.0256 518.94 24.9602C519.056 24.8949 519.114 24.7812 519.114 24.6193V24.5852C519.114 24.1648 518.999 23.8381 518.769 23.6051C518.542 23.3722 518.197 23.2557 517.734 23.2557C517.254 23.2557 516.877 23.3608 516.604 23.571C516.332 23.7812 516.14 24.0057 516.029 24.2443L515.075 23.9034C515.245 23.5057 515.472 23.196 515.756 22.9744C516.043 22.75 516.356 22.5937 516.694 22.5057C517.035 22.4148 517.37 22.3693 517.7 22.3693C517.91 22.3693 518.151 22.3949 518.424 22.446C518.7 22.4943 518.965 22.5952 519.221 22.7486C519.479 22.902 519.694 23.1335 519.864 23.4432C520.035 23.7528 520.12 24.1676 520.12 24.6875V29H519.114V28.1136H519.063C518.995 28.2557 518.881 28.4077 518.722 28.5696C518.563 28.7315 518.352 28.8693 518.087 28.983C517.823 29.0966 517.501 29.1534 517.12 29.1534ZM517.273 28.25C517.671 28.25 518.006 28.1719 518.279 28.0156C518.555 27.8594 518.762 27.6577 518.901 27.4105C519.043 27.1634 519.114 26.9034 519.114 26.6307V25.7102C519.072 25.7614 518.978 25.8082 518.833 25.8509C518.691 25.8906 518.526 25.9261 518.339 25.9574C518.154 25.9858 517.974 26.0114 517.798 26.0341C517.624 26.054 517.484 26.071 517.376 26.0852C517.114 26.1193 516.87 26.1747 516.643 26.2514C516.418 26.3253 516.237 26.4375 516.097 26.5881C515.961 26.7358 515.893 26.9375 515.893 27.1932C515.893 27.5426 516.022 27.8068 516.281 27.9858C516.542 28.1619 516.873 28.25 517.273 28.25ZM522.961 20.2727V29H521.956V20.2727H522.961ZM524.803 29V22.4545H525.809V29H524.803ZM525.315 21.3636C525.119 21.3636 524.95 21.2969 524.808 21.1634C524.668 21.0298 524.599 20.8693 524.599 20.6818C524.599 20.4943 524.668 20.3338 524.808 20.2003C524.95 20.0668 525.119 20 525.315 20C525.511 20 525.678 20.0668 525.817 20.2003C525.96 20.3338 526.031 20.4943 526.031 20.6818C526.031 20.8693 525.96 21.0298 525.817 21.1634C525.678 21.2969 525.511 21.3636 525.315 21.3636ZM532.287 23.9205L531.384 24.1761C531.327 24.0256 531.243 23.8793 531.132 23.7372C531.025 23.5923 530.877 23.473 530.689 23.3793C530.502 23.2855 530.262 23.2386 529.969 23.2386C529.569 23.2386 529.235 23.331 528.968 23.5156C528.703 23.6974 528.571 23.929 528.571 24.2102C528.571 24.4602 528.662 24.6577 528.844 24.8026C529.026 24.9474 529.31 25.0682 529.696 25.1648L530.668 25.4034C531.253 25.5455 531.689 25.7628 531.976 26.0554C532.263 26.3452 532.407 26.7187 532.407 27.1761C532.407 27.5511 532.299 27.8864 532.083 28.1818C531.87 28.4773 531.571 28.7102 531.188 28.8807C530.804 29.0511 530.358 29.1364 529.85 29.1364C529.182 29.1364 528.63 28.9915 528.192 28.7017C527.755 28.4119 527.478 27.9886 527.361 27.4318L528.316 27.1932C528.407 27.5455 528.578 27.8097 528.831 27.9858C529.087 28.1619 529.421 28.25 529.833 28.25C530.301 28.25 530.674 28.1506 530.949 27.9517C531.228 27.75 531.367 27.5085 531.367 27.2273C531.367 27 531.287 26.8097 531.128 26.6562C530.969 26.5 530.725 26.3835 530.395 26.3068L529.304 26.0511C528.705 25.9091 528.265 25.6889 527.983 25.3906C527.705 25.0895 527.566 24.7131 527.566 24.2614C527.566 23.892 527.669 23.5653 527.877 23.2812C528.087 22.9972 528.373 22.7741 528.733 22.6122C529.097 22.4503 529.509 22.3693 529.969 22.3693C530.617 22.3693 531.125 22.5114 531.495 22.7955C531.867 23.0795 532.131 23.4545 532.287 23.9205ZM536.665 29.1364C536.034 29.1364 535.49 28.9972 535.033 28.7188C534.578 28.4375 534.227 28.0455 533.98 27.5426C533.736 27.0369 533.614 26.4489 533.614 25.7784C533.614 25.108 533.736 24.517 533.98 24.0057C534.227 23.4915 534.571 23.0909 535.011 22.804C535.455 22.5142 535.972 22.3693 536.562 22.3693C536.903 22.3693 537.24 22.4261 537.572 22.5398C537.905 22.6534 538.207 22.8381 538.48 23.0938C538.753 23.3466 538.97 23.6818 539.132 24.0994C539.294 24.517 539.375 25.0312 539.375 25.642V26.0682H534.33V25.1989H538.352C538.352 24.8295 538.278 24.5 538.131 24.2102C537.986 23.9205 537.778 23.6918 537.509 23.5241C537.241 23.3565 536.926 23.2727 536.562 23.2727C536.162 23.2727 535.815 23.3722 535.523 23.571C535.233 23.767 535.01 24.0227 534.854 24.3381C534.697 24.6534 534.619 24.9915 534.619 25.3523V25.9318C534.619 26.4261 534.705 26.8452 534.875 27.1889C535.048 27.5298 535.288 27.7898 535.595 27.9688C535.902 28.1449 536.259 28.233 536.665 28.233C536.929 28.233 537.168 28.196 537.381 28.1222C537.597 28.0455 537.783 27.9318 537.939 27.7812C538.095 27.6278 538.216 27.4375 538.301 27.2102L539.273 27.483C539.17 27.8125 538.999 28.1023 538.757 28.3523C538.516 28.5994 538.217 28.7926 537.862 28.9318C537.507 29.0682 537.108 29.1364 536.665 29.1364ZM546.939 29.1364C546.325 29.1364 545.797 28.9915 545.354 28.7017C544.911 28.4119 544.57 28.0128 544.331 27.5043C544.092 26.9957 543.973 26.4148 543.973 25.7614C543.973 25.0966 544.095 24.5099 544.339 24.0014C544.587 23.4901 544.93 23.0909 545.371 22.804C545.814 22.5142 546.331 22.3693 546.922 22.3693C547.382 22.3693 547.797 22.4545 548.166 22.625C548.536 22.7955 548.838 23.0341 549.074 23.3409C549.31 23.6477 549.456 24.0057 549.513 24.4148H548.507C548.43 24.1165 548.26 23.8523 547.996 23.6222C547.734 23.3892 547.382 23.2727 546.939 23.2727C546.547 23.2727 546.203 23.375 545.908 23.5795C545.615 23.7812 545.386 24.0668 545.222 24.4361C545.06 24.8026 544.979 25.233 544.979 25.7273C544.979 26.233 545.058 26.6733 545.217 27.0483C545.379 27.4233 545.607 27.7145 545.899 27.9219C546.195 28.1293 546.541 28.233 546.939 28.233C547.2 28.233 547.438 28.1875 547.651 28.0966C547.864 28.0057 548.044 27.875 548.192 27.7045C548.339 27.5341 548.445 27.3295 548.507 27.0909H549.513C549.456 27.4773 549.315 27.8253 549.091 28.1349C548.869 28.4418 548.575 28.6861 548.209 28.8679C547.845 29.0469 547.422 29.1364 546.939 29.1364ZM550.983 29V22.4545H551.989V29H550.983ZM551.494 21.3636C551.298 21.3636 551.129 21.2969 550.987 21.1634C550.848 21.0298 550.778 20.8693 550.778 20.6818C550.778 20.4943 550.848 20.3338 550.987 20.2003C551.129 20.0668 551.298 20 551.494 20C551.69 20 551.858 20.0668 551.997 20.2003C552.139 20.3338 552.21 20.4943 552.21 20.6818C552.21 20.8693 552.139 21.0298 551.997 21.1634C551.858 21.2969 551.69 21.3636 551.494 21.3636ZM553.967 29V20.2727H554.973V23.4943H555.058C555.132 23.3807 555.234 23.2358 555.365 23.0597C555.498 22.8807 555.689 22.7216 555.936 22.5824C556.186 22.4403 556.524 22.3693 556.95 22.3693C557.501 22.3693 557.987 22.5071 558.407 22.7827C558.828 23.0582 559.156 23.4489 559.392 23.9545C559.627 24.4602 559.745 25.0568 559.745 25.7443C559.745 26.4375 559.627 27.0384 559.392 27.5469C559.156 28.0526 558.829 28.4446 558.412 28.723C557.994 28.9986 557.512 29.1364 556.967 29.1364C556.547 29.1364 556.21 29.0668 555.957 28.9276C555.704 28.7855 555.51 28.625 555.373 28.446C555.237 28.2642 555.132 28.1136 555.058 27.9943H554.939V29H553.967ZM554.956 25.7273C554.956 26.2216 555.028 26.6577 555.173 27.0355C555.318 27.4105 555.529 27.7045 555.808 27.9176C556.086 28.1278 556.427 28.233 556.831 28.233C557.251 28.233 557.602 28.1222 557.883 27.9006C558.167 27.6761 558.38 27.375 558.522 26.9972C558.667 26.6165 558.74 26.1932 558.74 25.7273C558.74 25.267 558.669 24.8523 558.527 24.483C558.387 24.1108 558.176 23.8168 557.892 23.6009C557.61 23.3821 557.257 23.2727 556.831 23.2727C556.422 23.2727 556.078 23.3764 555.799 23.5838C555.521 23.7884 555.311 24.0753 555.169 24.4446C555.027 24.8111 554.956 25.2386 554.956 25.7273ZM562.289 20.2727V29H561.284V20.2727H562.289ZM566.876 29.1364C566.245 29.1364 565.701 28.9972 565.244 28.7188C564.789 28.4375 564.438 28.0455 564.191 27.5426C563.947 27.0369 563.825 26.4489 563.825 25.7784C563.825 25.108 563.947 24.517 564.191 24.0057C564.438 23.4915 564.782 23.0909 565.222 22.804C565.665 22.5142 566.183 22.3693 566.773 22.3693C567.114 22.3693 567.451 22.4261 567.783 22.5398C568.116 22.6534 568.418 22.8381 568.691 23.0938C568.964 23.3466 569.181 23.6818 569.343 24.0994C569.505 24.517 569.586 25.0312 569.586 25.642V26.0682H564.54V25.1989H568.563C568.563 24.8295 568.489 24.5 568.342 24.2102C568.197 23.9205 567.989 23.6918 567.719 23.5241C567.452 23.3565 567.137 23.2727 566.773 23.2727C566.373 23.2727 566.026 23.3722 565.734 23.571C565.444 23.767 565.221 24.0227 565.065 24.3381C564.908 24.6534 564.83 24.9915 564.83 25.3523V25.9318C564.83 26.4261 564.915 26.8452 565.086 27.1889C565.259 27.5298 565.499 27.7898 565.806 27.9688C566.113 28.1449 566.469 28.233 566.876 28.233C567.14 28.233 567.379 28.196 567.592 28.1222C567.808 28.0455 567.994 27.9318 568.15 27.7812C568.306 27.6278 568.427 27.4375 568.512 27.2102L569.484 27.483C569.381 27.8125 569.21 28.1023 568.968 28.3523C568.727 28.5994 568.428 28.7926 568.073 28.9318C567.718 29.0682 567.319 29.1364 566.876 29.1364ZM566.262 21.5682L567.302 19.5909H568.478L567.148 21.5682H566.262ZM573.86 29.1364C573.229 29.1364 572.685 28.9972 572.228 28.7188C571.773 28.4375 571.423 28.0455 571.175 27.5426C570.931 27.0369 570.809 26.4489 570.809 25.7784C570.809 25.108 570.931 24.517 571.175 24.0057C571.423 23.4915 571.766 23.0909 572.207 22.804C572.65 22.5142 573.167 22.3693 573.758 22.3693C574.099 22.3693 574.435 22.4261 574.768 22.5398C575.1 22.6534 575.403 22.8381 575.675 23.0938C575.948 23.3466 576.165 23.6818 576.327 24.0994C576.489 24.517 576.57 25.0312 576.57 25.642V26.0682H571.525V25.1989H575.548C575.548 24.8295 575.474 24.5 575.326 24.2102C575.181 23.9205 574.974 23.6918 574.704 23.5241C574.437 23.3565 574.121 23.2727 573.758 23.2727C573.357 23.2727 573.011 23.3722 572.718 23.571C572.428 23.767 572.205 24.0227 572.049 24.3381C571.893 24.6534 571.815 24.9915 571.815 25.3523V25.9318C571.815 26.4261 571.9 26.8452 572.07 27.1889C572.244 27.5298 572.484 27.7898 572.79 27.9688C573.097 28.1449 573.454 28.233 573.86 28.233C574.124 28.233 574.363 28.196 574.576 28.1222C574.792 28.0455 574.978 27.9318 575.134 27.7812C575.29 27.6278 575.411 27.4375 575.496 27.2102L576.468 27.483C576.366 27.8125 576.194 28.1023 575.952 28.3523C575.711 28.5994 575.413 28.7926 575.058 28.9318C574.702 29.0682 574.303 29.1364 573.86 29.1364Z" fill="#673AB7"/>
<rect x="0.5" y="0.5" width="273" height="133" stroke="#9E9E9E"/>
<rect x="355.5" y="0.5" width="344" height="133" stroke="#9E9E9E"/>
<path d="M345.707 67.7071C346.098 67.3166 346.098 66.6834 345.707 66.2929L339.343 59.9289C338.953 59.5384 338.319 59.5384 337.929 59.9289C337.538 60.3195 337.538 60.9526 337.929 61.3431L343.586 67L337.929 72.6569C337.538 73.0474 337.538 73.6805 337.929 74.0711C338.319 74.4616 338.953 74.4616 339.343 74.0711L345.707 67.7071ZM284 68L345 68V66L284 66V68Z" fill="#9E9E9E"/>
</svg>
